<svg width="1046" height="131" viewBox="0 0 1046 131" fill="none" xmlns="http://www.w3.org/2000/svg">
<g clip-path="url(#clip0_69_5358)">
<path d="M449.412 27.8154V10.3609H456.298C457.622 10.3609 458.75 10.6137 459.681 11.1194C460.613 11.6194 461.324 12.3154 461.812 13.2075C462.306 14.0938 462.554 15.1166 462.554 16.2757C462.554 17.4347 462.304 18.4575 461.804 19.3438C461.304 20.2302 460.579 20.9205 459.63 21.4149C458.687 21.9092 457.545 22.1563 456.204 22.1563H451.815V19.199H455.608C456.318 19.199 456.903 19.0768 457.363 18.8325C457.829 18.5825 458.176 18.2387 458.403 17.8012C458.636 17.358 458.752 16.8495 458.752 16.2757C458.752 15.6961 458.636 15.1904 458.403 14.7586C458.176 14.3211 457.829 13.983 457.363 13.7444C456.897 13.5001 456.306 13.3779 455.591 13.3779H453.102V27.8154H449.412ZM464.882 27.8154V14.7245H468.402V17.0086H468.539C468.777 16.1961 469.178 15.5825 469.74 15.1677C470.303 14.7472 470.951 14.537 471.684 14.537C471.865 14.537 472.061 14.5484 472.272 14.5711C472.482 14.5938 472.667 14.6251 472.826 14.6649V17.8865C472.655 17.8353 472.419 17.7899 472.118 17.7501C471.817 17.7103 471.542 17.6904 471.292 17.6904C470.757 17.6904 470.28 17.8069 469.86 18.0399C469.445 18.2671 469.115 18.5853 468.871 18.9944C468.632 19.4035 468.513 19.8751 468.513 20.4092V27.8154H464.882ZM480.008 28.0711C478.684 28.0711 477.539 27.7899 476.574 27.2274C475.613 26.6592 474.872 25.8694 474.349 24.858C473.826 23.841 473.565 22.662 473.565 21.3211C473.565 19.9688 473.826 18.787 474.349 17.7757C474.872 16.7586 475.613 15.9688 476.574 15.4063C477.539 14.8382 478.684 14.5541 480.008 14.5541C481.332 14.5541 482.474 14.8382 483.434 15.4063C484.4 15.9688 485.145 16.7586 485.667 17.7757C486.19 18.787 486.451 19.9688 486.451 21.3211C486.451 22.662 486.19 23.841 485.667 24.858C485.145 25.8694 484.4 26.6592 483.434 27.2274C482.474 27.7899 481.332 28.0711 480.008 28.0711ZM480.025 25.2586C480.627 25.2586 481.13 25.0882 481.534 24.7472C481.937 24.4007 482.241 23.9291 482.446 23.3325C482.656 22.7359 482.761 22.0569 482.761 21.2955C482.761 20.5342 482.656 19.8552 482.446 19.2586C482.241 18.662 481.937 18.1904 481.534 17.8438C481.13 17.4972 480.627 17.324 480.025 17.324C479.417 17.324 478.906 17.4972 478.491 17.8438C478.082 18.1904 477.772 18.662 477.562 19.2586C477.358 19.8552 477.255 20.5342 477.255 21.2955C477.255 22.0569 477.358 22.7359 477.562 23.3325C477.772 23.9291 478.082 24.4007 478.491 24.7472C478.906 25.0882 479.417 25.2586 480.025 25.2586ZM494.727 28.0711C493.403 28.0711 492.258 27.7899 491.292 27.2274C490.332 26.6592 489.591 25.8694 489.068 24.858C488.545 23.841 488.284 22.662 488.284 21.3211C488.284 19.9688 488.545 18.787 489.068 17.7757C489.591 16.7586 490.332 15.9688 491.292 15.4063C492.258 14.8382 493.403 14.5541 494.727 14.5541C496.051 14.5541 497.193 14.8382 498.153 15.4063C499.119 15.9688 499.863 16.7586 500.386 17.7757C500.909 18.787 501.17 19.9688 501.17 21.3211C501.17 22.662 500.909 23.841 500.386 24.858C499.863 25.8694 499.119 26.6592 498.153 27.2274C497.193 27.7899 496.051 28.0711 494.727 28.0711ZM494.744 25.2586C495.346 25.2586 495.849 25.0882 496.252 24.7472C496.656 24.4007 496.96 23.9291 497.164 23.3325C497.375 22.7359 497.48 22.0569 497.48 21.2955C497.48 20.5342 497.375 19.8552 497.164 19.2586C496.96 18.662 496.656 18.1904 496.252 17.8438C495.849 17.4972 495.346 17.324 494.744 17.324C494.136 17.324 493.625 17.4972 493.21 17.8438C492.801 18.1904 492.491 18.662 492.281 19.2586C492.076 19.8552 491.974 20.5342 491.974 21.2955C491.974 22.0569 492.076 22.7359 492.281 23.3325C492.491 23.9291 492.801 24.4007 493.21 24.7472C493.625 25.0882 494.136 25.2586 494.744 25.2586ZM510.571 14.7245V17.4518H502.491V14.7245H510.571ZM504.341 27.8154V13.7785C504.341 12.8296 504.525 12.0427 504.895 11.4177C505.27 10.7927 505.781 10.324 506.429 10.0115C507.076 9.69895 507.812 9.5427 508.636 9.5427C509.193 9.5427 509.701 9.58532 510.162 9.67054C510.627 9.75577 510.974 9.83247 511.201 9.90066L510.554 12.6279C510.412 12.5825 510.235 12.5399 510.025 12.5001C509.821 12.4603 509.61 12.4404 509.395 12.4404C508.86 12.4404 508.488 12.5654 508.278 12.8154C508.068 13.0597 507.963 13.4035 507.963 13.8467V27.8154H504.341ZM527.88 15.3808C527.812 14.6933 527.52 14.1592 527.002 13.7785C526.485 13.3978 525.784 13.2075 524.897 13.2075C524.295 13.2075 523.787 13.2927 523.372 13.4632C522.957 13.6279 522.639 13.858 522.417 14.1535C522.201 14.449 522.093 14.7842 522.093 15.1592C522.082 15.4717 522.147 15.7444 522.289 15.9774C522.437 16.2103 522.639 16.412 522.895 16.5825C523.15 16.7472 523.446 16.8921 523.781 17.0171C524.116 17.1365 524.474 17.2387 524.855 17.324L526.423 17.699C527.184 17.8694 527.883 18.0967 528.52 18.3808C529.156 18.6649 529.707 19.0143 530.173 19.4291C530.639 19.8438 531 20.3325 531.255 20.895C531.517 21.4575 531.65 22.1024 531.656 22.8296C531.65 23.8978 531.377 24.824 530.838 25.608C530.304 26.3865 529.531 26.9916 528.52 27.4234C527.514 27.8495 526.301 28.0626 524.88 28.0626C523.471 28.0626 522.244 27.8467 521.199 27.4149C520.159 26.983 519.346 26.3438 518.761 25.4972C518.181 24.645 517.877 23.591 517.849 22.3353H521.42C521.46 22.9205 521.627 23.4092 521.923 23.8012C522.224 24.1876 522.625 24.4802 523.125 24.6791C523.63 24.8722 524.201 24.9688 524.838 24.9688C525.463 24.9688 526.005 24.8779 526.466 24.6961C526.931 24.5143 527.292 24.2615 527.548 23.9376C527.804 23.6137 527.931 23.2416 527.931 22.8211C527.931 22.4291 527.815 22.0995 527.582 21.8325C527.355 21.5654 527.02 21.3382 526.576 21.1507C526.139 20.9632 525.602 20.7927 524.966 20.6393L523.065 20.162C521.593 19.8041 520.431 19.2444 519.579 18.483C518.727 17.7217 518.304 16.6961 518.309 15.4063C518.304 14.3495 518.585 13.4262 519.153 12.6365C519.727 11.8467 520.514 11.2302 521.514 10.787C522.514 10.3438 523.65 10.1222 524.923 10.1222C526.218 10.1222 527.349 10.3438 528.315 10.787C529.287 11.2302 530.042 11.8467 530.582 12.6365C531.122 13.4262 531.4 14.341 531.417 15.3808H527.88ZM541.033 14.7245V17.4518H533.15V14.7245H541.033ZM534.939 11.5882H538.57V23.7927C538.57 24.1279 538.621 24.3893 538.723 24.5768C538.826 24.7586 538.968 24.8865 539.15 24.9603C539.337 25.0342 539.553 25.0711 539.797 25.0711C539.968 25.0711 540.138 25.0569 540.309 25.0285C540.479 24.9944 540.61 24.9688 540.701 24.9518L541.272 27.6535C541.09 27.7103 540.834 27.7757 540.505 27.8495C540.175 27.9291 539.775 27.9774 539.303 27.9944C538.428 28.0285 537.661 27.912 537.002 27.645C536.348 27.3779 535.84 26.9632 535.476 26.4007C535.113 25.8382 534.934 25.1279 534.939 24.27V11.5882ZM549.172 28.0711C547.848 28.0711 546.703 27.7899 545.738 27.2274C544.777 26.6592 544.036 25.8694 543.513 24.858C542.99 23.841 542.729 22.662 542.729 21.3211C542.729 19.9688 542.99 18.787 543.513 17.7757C544.036 16.7586 544.777 15.9688 545.738 15.4063C546.703 14.8382 547.848 14.5541 549.172 14.5541C550.496 14.5541 551.638 14.8382 552.598 15.4063C553.564 15.9688 554.309 16.7586 554.831 17.7757C555.354 18.787 555.615 19.9688 555.615 21.3211C555.615 22.662 555.354 23.841 554.831 24.858C554.309 25.8694 553.564 26.6592 552.598 27.2274C551.638 27.7899 550.496 28.0711 549.172 28.0711ZM549.189 25.2586C549.792 25.2586 550.294 25.0882 550.698 24.7472C551.101 24.4007 551.405 23.9291 551.61 23.3325C551.82 22.7359 551.925 22.0569 551.925 21.2955C551.925 20.5342 551.82 19.8552 551.61 19.2586C551.405 18.662 551.101 18.1904 550.698 17.8438C550.294 17.4972 549.792 17.324 549.189 17.324C548.581 17.324 548.07 17.4972 547.655 17.8438C547.246 18.1904 546.936 18.662 546.726 19.2586C546.522 19.8552 546.419 20.5342 546.419 21.2955C546.419 22.0569 546.522 22.7359 546.726 23.3325C546.936 23.9291 547.246 24.4007 547.655 24.7472C548.07 25.0882 548.581 25.2586 549.189 25.2586ZM557.976 27.8154V14.7245H561.496V17.0086H561.632C561.871 16.1961 562.272 15.5825 562.834 15.1677C563.397 14.7472 564.044 14.537 564.777 14.537C564.959 14.537 565.155 14.5484 565.365 14.5711C565.576 14.5938 565.76 14.6251 565.919 14.6649V17.8865C565.749 17.8353 565.513 17.7899 565.212 17.7501C564.911 17.7103 564.635 17.6904 564.385 17.6904C563.851 17.6904 563.374 17.8069 562.953 18.0399C562.539 18.2671 562.209 18.5853 561.965 18.9944C561.726 19.4035 561.607 19.8751 561.607 20.4092V27.8154H557.976ZM570.436 32.7245C569.976 32.7245 569.544 32.6876 569.141 32.6137C568.743 32.5455 568.414 32.4575 568.152 32.3495L568.971 29.6393C569.397 29.77 569.78 29.841 570.121 29.8524C570.468 29.8637 570.766 29.7842 571.016 29.6137C571.272 29.4433 571.479 29.1535 571.638 28.7444L571.851 28.1904L567.155 14.7245H570.973L573.684 24.3382H573.82L576.556 14.7245H580.4L575.311 29.2302C575.067 29.9347 574.735 30.5484 574.314 31.0711C573.9 31.5995 573.374 32.0058 572.738 32.2899C572.101 32.5796 571.334 32.7245 570.436 32.7245ZM595.372 10.3609V27.8154H591.681V13.8637H591.579L587.582 16.3694V13.0967L591.903 10.3609H595.372Z" fill="#1C3AA9"/>
<path d="M75.7584 59.0874V54.4794L78.1704 50.8074H80.5824L79.0344 54.4794H80.7984V59.0874H75.7584ZM82.0944 59.0874V54.4794L84.5064 50.8074H86.9184L85.3704 54.4794H87.1344V59.0874H82.0944ZM115.781 59.5194H109.589V56.7114H107.285V72.9114H109.805V78.8154H94.6851V72.9114H97.2051V56.7114H94.9011V59.5194H88.7091V50.8074H115.781V59.5194ZM125.14 79.3194C121.732 79.3194 119.068 78.4314 117.148 76.6554C115.228 74.8554 114.268 72.2394 114.268 68.8074C114.268 65.3754 115.228 62.7714 117.148 60.9954C119.068 59.1954 121.732 58.2954 125.14 58.2954C128.596 58.2954 131.272 59.2074 133.168 61.0314C135.064 62.8314 136.012 65.4234 136.012 68.8074C136.012 72.2394 135.052 74.8554 133.132 76.6554C131.212 78.4314 128.548 79.3194 125.14 79.3194ZM125.14 72.9114C125.836 72.9114 126.352 72.7314 126.688 72.3714C127.048 71.9874 127.228 71.3994 127.228 70.6074V67.0074C127.228 66.2154 127.048 65.6394 126.688 65.2794C126.352 64.8954 125.836 64.7034 125.14 64.7034C124.444 64.7034 123.916 64.8954 123.556 65.2794C123.22 65.6394 123.052 66.2154 123.052 67.0074V70.6074C123.052 71.3994 123.22 71.9874 123.556 72.3714C123.916 72.7314 124.444 72.9114 125.14 72.9114ZM144.25 79.3194C141.802 79.3194 139.954 78.4074 138.706 76.5834C137.482 74.7594 136.87 72.1674 136.87 68.8074C136.87 65.4474 137.482 62.8554 138.706 61.0314C139.954 59.2074 141.802 58.2954 144.25 58.2954C145.474 58.2954 146.554 58.5954 147.49 59.1954C148.45 59.7954 149.23 60.4794 149.83 61.2474V56.7114H147.706V50.8074H158.11V72.9114H159.694V78.8154H149.83V76.3674C149.23 77.1354 148.45 77.8194 147.49 78.4194C146.554 79.0194 145.474 79.3194 144.25 79.3194ZM147.742 72.9114C148.438 72.9114 148.954 72.7314 149.29 72.3714C149.65 71.9874 149.83 71.3994 149.83 70.6074V67.0074C149.83 66.2154 149.65 65.6394 149.29 65.2794C148.954 64.8954 148.438 64.7034 147.742 64.7034C147.046 64.7034 146.518 64.8954 146.158 65.2794C145.822 65.6394 145.654 66.2154 145.654 67.0074V70.6074C145.654 71.3994 145.822 71.9874 146.158 72.3714C146.518 72.7314 147.046 72.9114 147.742 72.9114ZM181.841 72.9114V78.8154H172.337V76.3674C171.809 77.1354 171.065 77.8194 170.105 78.4194C169.169 79.0194 168.017 79.3194 166.649 79.3194C164.849 79.3194 163.433 78.8394 162.401 77.8794C161.369 76.9194 160.853 75.5634 160.853 73.8114C160.853 69.2754 164.705 66.9474 172.409 66.8274C172.337 66.0114 172.025 65.4594 171.473 65.1714C170.921 64.8594 169.985 64.7034 168.665 64.7034C167.585 64.7034 166.421 64.8234 165.173 65.0634C163.949 65.2794 162.821 65.5794 161.789 65.9634V59.3394C163.061 59.0274 164.441 58.7754 165.929 58.5834C167.417 58.3914 168.869 58.2954 170.285 58.2954C173.861 58.2954 176.417 58.9434 177.953 60.2394C179.489 61.5354 180.257 63.5394 180.257 66.2514V72.9114H181.841ZM172.337 70.3914C171.257 70.3914 170.417 70.5354 169.817 70.8234C169.241 71.1114 168.953 71.5914 168.953 72.2634C168.953 72.6714 169.073 73.0074 169.313 73.2714C169.577 73.5114 169.937 73.6314 170.393 73.6314C171.017 73.6314 171.497 73.3674 171.833 72.8394C172.169 72.3114 172.337 71.5674 172.337 70.6074V70.3914ZM204.674 58.7994V64.7034H203.306L198.59 77.1954C197.414 80.3394 196.07 82.6914 194.558 84.2514C193.046 85.8354 191.054 86.6274 188.582 86.6274C187.574 86.6274 186.554 86.5194 185.522 86.3034C184.49 86.1114 183.554 85.8354 182.714 85.4754V78.9594H187.682V79.3194C187.682 79.9194 187.994 80.2194 188.618 80.2194C189.17 80.2194 189.59 79.9554 189.878 79.4274L184.19 64.7034H182.822V58.7994H193.514V64.7034H192.29L194.162 70.3194L195.89 64.7034H194.666V58.7994H204.674ZM206.54 59.0874L206 50.8074H211.148L210.608 59.0874H206.54ZM221.457 79.3194C218.433 79.3194 215.517 78.8394 212.709 77.8794V72.5514H218.541V72.9114C218.541 74.0634 219.273 74.6394 220.737 74.6394C222.033 74.6394 222.681 74.1954 222.681 73.3074C222.681 72.8274 222.489 72.4674 222.105 72.2274C221.745 71.9874 221.097 71.7834 220.161 71.6154L218.361 71.2914C214.593 70.6194 212.709 68.4834 212.709 64.8834C212.709 62.7954 213.501 61.1754 215.085 60.0234C216.669 58.8714 218.805 58.2954 221.493 58.2954C224.493 58.2954 227.025 58.7994 229.089 59.8074V64.8114H223.617V64.4514C223.617 63.9714 223.449 63.6114 223.113 63.3714C222.801 63.1074 222.333 62.9754 221.709 62.9754C220.509 62.9754 219.909 63.3594 219.909 64.1274C219.909 64.5354 220.077 64.8474 220.413 65.0634C220.749 65.2794 221.361 65.4834 222.249 65.6754L224.301 66.0714C226.437 66.4794 227.961 67.2354 228.873 68.3394C229.785 69.4434 230.241 70.8594 230.241 72.5874C230.241 74.7714 229.473 76.4394 227.937 77.5914C226.425 78.7434 224.265 79.3194 221.457 79.3194ZM268.665 72.9114H270.105V78.8154H255.993V72.9114H258.153L257.577 70.0314H252.681L252.105 72.9114H254.265V78.8154H241.953V72.9114H243.393L249.477 50.8074H262.581L268.665 72.9114ZM253.473 66.2154H256.785L255.309 59.0514H254.949L253.473 66.2154ZM281.937 79.3194C278.505 79.3194 275.829 78.4314 273.909 76.6554C271.989 74.8554 271.029 72.2394 271.029 68.8074C271.029 65.3754 271.989 62.7714 273.909 60.9954C275.829 59.1954 278.493 58.2954 281.901 58.2954C283.557 58.2954 285.141 58.5234 286.653 58.9794C288.165 59.4354 289.341 59.9514 290.181 60.5274V67.6554H283.989V67.0074C283.989 66.2154 283.821 65.6394 283.485 65.2794C283.149 64.8954 282.621 64.7034 281.901 64.7034C280.509 64.7034 279.813 65.4714 279.813 67.0074V70.1034C279.813 71.9754 280.881 72.9114 283.017 72.9114C285.009 72.9114 287.325 72.6954 289.965 72.2634V77.9154C289.149 78.2754 287.997 78.5994 286.509 78.8874C285.045 79.1754 283.521 79.3194 281.937 79.3194ZM300.28 79.3194C297.736 79.3194 295.816 78.7074 294.52 77.4834C293.248 76.2354 292.612 74.1474 292.612 71.2194V64.7034H291.028V58.7994C291.94 58.7994 292.624 58.5714 293.08 58.1154C293.536 57.6354 293.764 56.9874 293.764 56.1714V54.5514H301.396V58.7994H306.256V64.7034H301.396V70.6074C301.396 71.3994 301.564 71.9874 301.9 72.3714C302.26 72.7314 302.788 72.9114 303.484 72.9114C304.396 72.9114 305.392 72.8034 306.472 72.5874V78.2394C305.8 78.5034 304.888 78.7434 303.736 78.9594C302.608 79.1994 301.456 79.3194 300.28 79.3194ZM309.358 56.8194V50.8074H316.702V56.8194H309.358ZM307.63 78.8154V72.9114H309.214V64.7034H307.63V58.7994H317.494V72.9114H319.078V78.8154H307.63ZM325.836 78.8154L321.3 64.7034H319.788V58.7994H330.912V64.7034H329.4L331.308 71.8314H331.668L333.576 64.7034H332.064V58.7994H342.504V64.7034H340.992L336.564 78.8154H325.836ZM345.253 56.8194V50.8074H352.597V56.8194H345.253ZM343.525 78.8154V72.9114H345.109V64.7034H343.525V58.7994H353.389V72.9114H354.973V78.8154H343.525ZM364.862 79.3194C362.318 79.3194 360.398 78.7074 359.102 77.4834C357.83 76.2354 357.194 74.1474 357.194 71.2194V64.7034H355.61V58.7994C356.522 58.7994 357.206 58.5714 357.662 58.1154C358.118 57.6354 358.346 56.9874 358.346 56.1714V54.5514H365.978V58.7994H370.838V64.7034H365.978V70.6074C365.978 71.3994 366.146 71.9874 366.482 72.3714C366.842 72.7314 367.37 72.9114 368.066 72.9114C368.978 72.9114 369.974 72.8034 371.054 72.5874V78.2394C370.382 78.5034 369.47 78.7434 368.318 78.9594C367.19 79.1994 366.038 79.3194 364.862 79.3194ZM393.884 58.7994V64.7034H392.516L387.8 77.1954C386.624 80.3394 385.28 82.6914 383.768 84.2514C382.256 85.8354 380.264 86.6274 377.792 86.6274C376.784 86.6274 375.764 86.5194 374.732 86.3034C373.7 86.1114 372.764 85.8354 371.924 85.4754V78.9594H376.892V79.3194C376.892 79.9194 377.204 80.2194 377.828 80.2194C378.38 80.2194 378.8 79.9554 379.088 79.4274L373.4 64.7034H372.032V58.7994H382.724V64.7034H381.5L383.372 70.3194L385.1 64.7034H383.876V58.7994H393.884ZM395.607 59.0874L397.155 55.4154H395.391V50.8074H400.431V55.4154L398.019 59.0874H395.607ZM401.943 59.0874L403.491 55.4154H401.727V50.8074H406.767V55.4154L404.355 59.0874H401.943Z" fill="#013399"/>
<path d="M430.87 79.3194C428.566 79.3194 426.382 79.1274 424.318 78.7434C422.278 78.3354 420.706 77.8794 419.602 77.3754V70.2474H427.522C427.522 70.9914 427.69 71.5314 428.026 71.8674C428.362 72.2034 428.974 72.3714 429.862 72.3714C430.606 72.3714 431.134 72.2634 431.446 72.0474C431.782 71.8074 431.95 71.4594 431.95 71.0034C431.95 70.6194 431.794 70.2954 431.482 70.0314C431.17 69.7434 430.63 69.4554 429.862 69.1674L426.766 68.0874C424.102 67.0794 422.182 65.8914 421.006 64.5234C419.854 63.1554 419.278 61.3074 419.278 58.9794C419.278 56.1474 420.202 53.9994 422.05 52.5354C423.922 51.0474 427.03 50.3034 431.374 50.3034C433.462 50.3034 435.418 50.5194 437.242 50.9514C439.09 51.3594 440.578 51.9114 441.706 52.6074V59.0514H434.506C434.506 57.8514 433.762 57.2514 432.274 57.2514C431.554 57.2514 431.038 57.3474 430.726 57.5394C430.438 57.7074 430.294 58.0194 430.294 58.4754C430.294 58.8834 430.462 59.2074 430.798 59.4474C431.158 59.6874 431.734 59.9394 432.526 60.2034L435.658 61.2834C438.202 62.1474 440.05 63.2754 441.202 64.6674C442.378 66.0354 442.966 67.8354 442.966 70.0674C442.966 73.1154 441.934 75.4194 439.87 76.9794C437.83 78.5394 434.83 79.3194 430.87 79.3194ZM452.788 79.3194C450.244 79.3194 448.324 78.7074 447.028 77.4834C445.756 76.2354 445.12 74.1474 445.12 71.2194V64.7034H443.536V58.7994C444.448 58.7994 445.132 58.5714 445.588 58.1154C446.044 57.6354 446.272 56.9874 446.272 56.1714V54.5514H453.904V58.7994H458.764V64.7034H453.904V70.6074C453.904 71.3994 454.072 71.9874 454.408 72.3714C454.768 72.7314 455.296 72.9114 455.992 72.9114C456.904 72.9114 457.9 72.8034 458.98 72.5874V78.2394C458.308 78.5034 457.396 78.7434 456.244 78.9594C455.116 79.1994 453.964 79.3194 452.788 79.3194ZM475.51 58.2954C475.99 58.2954 476.446 58.3434 476.878 58.4394C477.31 58.5354 477.67 58.6554 477.958 58.7994V65.6754C476.974 65.2674 475.918 65.0634 474.79 65.0634C473.278 65.0634 472.114 65.4594 471.298 66.2514C470.482 67.0434 470.074 68.2194 470.074 69.7794V72.9114H473.314V78.8154H460.21V72.9114H461.794V64.7034H460.21V58.7994H470.074V61.4274C470.746 60.4194 471.514 59.6514 472.378 59.1234C473.242 58.5714 474.286 58.2954 475.51 58.2954ZM489.851 79.3194C486.443 79.3194 483.779 78.4314 481.859 76.6554C479.939 74.8554 478.979 72.2394 478.979 68.8074C478.979 65.3754 479.939 62.7714 481.859 60.9954C483.779 59.1954 486.443 58.2954 489.851 58.2954C493.235 58.2954 495.671 59.1834 497.159 60.9594C498.671 62.7114 499.427 64.8954 499.427 67.5114V70.1034H487.763V70.3194C487.763 71.2074 488.027 71.8674 488.555 72.2994C489.083 72.7074 489.959 72.9114 491.183 72.9114C492.647 72.9114 494.039 72.8034 495.359 72.5874C496.679 72.3714 497.831 72.0954 498.815 71.7594V77.5194C497.975 77.9754 496.739 78.3954 495.107 78.7794C493.499 79.1394 491.747 79.3194 489.851 79.3194ZM491.939 66.1434V65.7114C491.939 64.8954 491.759 64.3074 491.399 63.9474C491.063 63.5874 490.547 63.4074 489.851 63.4074C489.155 63.4074 488.627 63.5994 488.267 63.9834C487.931 64.3434 487.763 64.9194 487.763 65.7114V66.1434H491.939ZM524.402 72.9114V78.8154H513.026V72.9114H514.538V67.0074C514.538 66.2154 514.37 65.6394 514.034 65.2794C513.698 64.8954 513.194 64.7034 512.522 64.7034C511.082 64.7034 510.362 65.4714 510.362 67.0074V72.9114H511.874V78.8154H500.498V72.9114H502.082V64.7034H500.498V58.7994H510.362V61.6074C512.09 59.3994 514.25 58.2954 516.842 58.2954C518.834 58.2954 520.322 58.9194 521.306 60.1674C522.314 61.4154 522.818 63.1314 522.818 65.3154V72.9114H524.402ZM536.112 87.3114C534.384 87.3114 532.728 87.1914 531.144 86.9514C529.584 86.7114 528.372 86.4354 527.508 86.1234V80.2194C530.052 80.6754 532.332 80.9034 534.348 80.9034C535.716 80.9034 536.7 80.6874 537.3 80.2554C537.924 79.8474 538.236 79.0674 538.236 77.9154V76.3674C537.636 77.1354 536.856 77.8194 535.896 78.4194C534.96 79.0194 533.88 79.3194 532.656 79.3194C530.208 79.3194 528.36 78.4074 527.112 76.5834C525.888 74.7594 525.276 72.1674 525.276 68.8074C525.276 65.4474 525.888 62.8554 527.112 61.0314C528.36 59.2074 530.208 58.2954 532.656 58.2954C533.88 58.2954 534.96 58.5954 535.896 59.1954C536.856 59.7954 537.636 60.4794 538.236 61.2474V58.7994H548.1V64.7034H546.516V77.3754C546.516 80.8554 545.652 83.3754 543.924 84.9354C542.196 86.5194 539.592 87.3114 536.112 87.3114ZM536.148 72.9114C536.844 72.9114 537.36 72.7314 537.696 72.3714C538.056 71.9874 538.236 71.3994 538.236 70.6074V67.0074C538.236 66.2154 538.056 65.6394 537.696 65.2794C537.36 64.8954 536.844 64.7034 536.148 64.7034C535.452 64.7034 534.924 64.8954 534.564 65.2794C534.228 65.6394 534.06 66.2154 534.06 67.0074V70.6074C534.06 71.3994 534.228 71.9874 534.564 72.3714C534.924 72.7314 535.452 72.9114 536.148 72.9114ZM558.011 79.3194C555.467 79.3194 553.547 78.7074 552.251 77.4834C550.979 76.2354 550.343 74.1474 550.343 71.2194V64.7034H548.759V58.7994C549.671 58.7994 550.355 58.5714 550.811 58.1154C551.267 57.6354 551.495 56.9874 551.495 56.1714V54.5514H559.127V58.7994H563.987V64.7034H559.127V70.6074C559.127 71.3994 559.295 71.9874 559.631 72.3714C559.991 72.7314 560.519 72.9114 561.215 72.9114C562.127 72.9114 563.123 72.8034 564.203 72.5874V78.2394C563.531 78.5034 562.619 78.7434 561.467 78.9594C560.339 79.1994 559.187 79.3194 558.011 79.3194ZM589.265 72.9114V78.8154H577.889V72.9114H579.401V67.0074C579.401 66.2154 579.233 65.6394 578.897 65.2794C578.561 64.8954 578.057 64.7034 577.385 64.7034C575.945 64.7034 575.225 65.4714 575.225 67.0074V72.9114H576.737V78.8154H565.361V72.9114H566.945V56.7114H565.361V50.8074H575.225V61.6074C576.113 60.5034 577.073 59.6754 578.105 59.1234C579.137 58.5714 580.337 58.2954 581.705 58.2954C583.697 58.2954 585.185 58.9194 586.169 60.1674C587.177 61.4154 587.681 63.1314 587.681 65.3154V72.9114H589.265ZM601.155 79.3194C597.747 79.3194 595.083 78.4314 593.163 76.6554C591.243 74.8554 590.283 72.2394 590.283 68.8074C590.283 65.3754 591.243 62.7714 593.163 60.9954C595.083 59.1954 597.747 58.2954 601.155 58.2954C604.539 58.2954 606.975 59.1834 608.463 60.9594C609.975 62.7114 610.731 64.8954 610.731 67.5114V70.1034H599.067V70.3194C599.067 71.2074 599.331 71.8674 599.859 72.2994C600.387 72.7074 601.263 72.9114 602.487 72.9114C603.951 72.9114 605.343 72.8034 606.663 72.5874C607.983 72.3714 609.135 72.0954 610.119 71.7594V77.5194C609.279 77.9754 608.043 78.3954 606.411 78.7794C604.803 79.1394 603.051 79.3194 601.155 79.3194ZM603.243 66.1434V65.7114C603.243 64.8954 603.063 64.3074 602.703 63.9474C602.367 63.5874 601.851 63.4074 601.155 63.4074C600.459 63.4074 599.931 63.5994 599.571 63.9834C599.235 64.3434 599.067 64.9194 599.067 65.7114V66.1434H603.243ZM635.706 72.9114V78.8154H624.33V72.9114H625.842V67.0074C625.842 66.2154 625.674 65.6394 625.338 65.2794C625.002 64.8954 624.498 64.7034 623.826 64.7034C622.386 64.7034 621.666 65.4714 621.666 67.0074V72.9114H623.178V78.8154H611.802V72.9114H613.386V64.7034H611.802V58.7994H621.666V61.6074C623.394 59.3994 625.554 58.2954 628.146 58.2954C630.138 58.2954 631.626 58.9194 632.61 60.1674C633.618 61.4154 634.122 63.1314 634.122 65.3154V72.9114H635.706ZM638.597 56.8194V50.8074H645.941V56.8194H638.597ZM636.869 78.8154V72.9114H638.453V64.7034H636.869V58.7994H646.733V72.9114H648.317V78.8154H636.869ZM673.218 72.9114V78.8154H661.842V72.9114H663.354V67.0074C663.354 66.2154 663.186 65.6394 662.85 65.2794C662.514 64.8954 662.01 64.7034 661.338 64.7034C659.898 64.7034 659.178 65.4714 659.178 67.0074V72.9114H660.69V78.8154H649.314V72.9114H650.898V64.7034H649.314V58.7994H659.178V61.6074C660.906 59.3994 663.066 58.2954 665.658 58.2954C667.65 58.2954 669.138 58.9194 670.122 60.1674C671.13 61.4154 671.634 63.1314 671.634 65.3154V72.9114H673.218ZM684.928 87.3114C683.2 87.3114 681.544 87.1914 679.96 86.9514C678.4 86.7114 677.188 86.4354 676.324 86.1234V80.2194C678.868 80.6754 681.148 80.9034 683.164 80.9034C684.532 80.9034 685.516 80.6874 686.116 80.2554C686.74 79.8474 687.052 79.0674 687.052 77.9154V76.3674C686.452 77.1354 685.672 77.8194 684.712 78.4194C683.776 79.0194 682.696 79.3194 681.472 79.3194C679.024 79.3194 677.176 78.4074 675.928 76.5834C674.704 74.7594 674.092 72.1674 674.092 68.8074C674.092 65.4474 674.704 62.8554 675.928 61.0314C677.176 59.2074 679.024 58.2954 681.472 58.2954C682.696 58.2954 683.776 58.5954 684.712 59.1954C685.672 59.7954 686.452 60.4794 687.052 61.2474V58.7994H696.916V64.7034H695.332V77.3754C695.332 80.8554 694.468 83.3754 692.74 84.9354C691.012 86.5194 688.408 87.3114 684.928 87.3114ZM684.964 72.9114C685.66 72.9114 686.176 72.7314 686.512 72.3714C686.872 71.9874 687.052 71.3994 687.052 70.6074V67.0074C687.052 66.2154 686.872 65.6394 686.512 65.2794C686.176 64.8954 685.66 64.7034 684.964 64.7034C684.268 64.7034 683.74 64.8954 683.38 65.2794C683.044 65.6394 682.876 66.2154 682.876 67.0074V70.6074C682.876 71.3994 683.044 71.9874 683.38 72.3714C683.74 72.7314 684.268 72.9114 684.964 72.9114ZM708.8 72.9114H710.6V56.7114H708.8V50.8074H725.324C728.324 50.8074 730.664 51.4194 732.344 52.6434C734.024 53.8674 734.864 55.6194 734.864 57.8994C734.864 59.3154 734.528 60.5154 733.856 61.4994C733.184 62.4594 732.392 63.1914 731.48 63.6954C730.592 64.1754 729.728 64.4994 728.888 64.6674V65.0274C730.592 65.1954 732.128 65.7354 733.496 66.6474C734.864 67.5594 735.548 69.1914 735.548 71.5434C735.548 74.0634 734.6 75.9114 732.704 77.0874C730.808 78.2394 728.348 78.8154 725.324 78.8154H708.8V72.9114ZM722.624 62.6154C723.32 62.6154 723.836 62.4354 724.172 62.0754C724.532 61.6914 724.712 61.1034 724.712 60.3114V59.0154C724.712 58.2234 724.532 57.6474 724.172 57.2874C723.836 56.9034 723.32 56.7114 722.624 56.7114H720.68V62.6154H722.624ZM722.876 72.9114C723.572 72.9114 724.088 72.7314 724.424 72.3714C724.784 71.9874 724.964 71.3994 724.964 70.6074V69.0234C724.964 68.2314 724.784 67.6554 724.424 67.2954C724.088 66.9114 723.572 66.7194 722.876 66.7194H720.68V72.9114H722.876ZM747.37 79.3194C743.962 79.3194 741.298 78.4314 739.378 76.6554C737.458 74.8554 736.498 72.2394 736.498 68.8074C736.498 65.3754 737.458 62.7714 739.378 60.9954C741.298 59.1954 743.962 58.2954 747.37 58.2954C750.826 58.2954 753.502 59.2074 755.398 61.0314C757.294 62.8314 758.242 65.4234 758.242 68.8074C758.242 72.2394 757.282 74.8554 755.362 76.6554C753.442 78.4314 750.778 79.3194 747.37 79.3194ZM747.37 72.9114C748.066 72.9114 748.582 72.7314 748.918 72.3714C749.278 71.9874 749.458 71.3994 749.458 70.6074V67.0074C749.458 66.2154 749.278 65.6394 748.918 65.2794C748.582 64.8954 748.066 64.7034 747.37 64.7034C746.674 64.7034 746.146 64.8954 745.786 65.2794C745.45 65.6394 745.282 66.2154 745.282 67.0074V70.6074C745.282 71.3994 745.45 71.9874 745.786 72.3714C746.146 72.7314 746.674 72.9114 747.37 72.9114ZM783.292 72.9114V78.8154H771.916V72.9114H773.428V67.0074C773.428 66.2154 773.26 65.6394 772.924 65.2794C772.588 64.8954 772.084 64.7034 771.412 64.7034C769.972 64.7034 769.252 65.4714 769.252 67.0074V72.9114H770.764V78.8154H759.388V72.9114H760.972V64.7034H759.388V58.7994H769.252V61.6074C770.98 59.3994 773.14 58.2954 775.732 58.2954C777.724 58.2954 779.212 58.9194 780.196 60.1674C781.204 61.4154 781.708 63.1314 781.708 65.3154V72.9114H783.292ZM791.547 79.3194C789.099 79.3194 787.251 78.4074 786.003 76.5834C784.779 74.7594 784.167 72.1674 784.167 68.8074C784.167 65.4474 784.779 62.8554 786.003 61.0314C787.251 59.2074 789.099 58.2954 791.547 58.2954C792.771 58.2954 793.851 58.5954 794.787 59.1954C795.747 59.7954 796.527 60.4794 797.127 61.2474V56.7114H795.003V50.8074H805.407V72.9114H806.991V78.8154H797.127V76.3674C796.527 77.1354 795.747 77.8194 794.787 78.4194C793.851 79.0194 792.771 79.3194 791.547 79.3194ZM795.039 72.9114C795.735 72.9114 796.251 72.7314 796.587 72.3714C796.947 71.9874 797.127 71.3994 797.127 70.6074V67.0074C797.127 66.2154 796.947 65.6394 796.587 65.2794C796.251 64.8954 795.735 64.7034 795.039 64.7034C794.343 64.7034 793.815 64.8954 793.455 65.2794C793.119 65.6394 792.951 66.2154 792.951 67.0074V70.6074C792.951 71.3994 793.119 71.9874 793.455 72.3714C793.815 72.7314 794.343 72.9114 795.039 72.9114ZM816.898 79.3194C813.874 79.3194 810.958 78.8394 808.15 77.8794V72.5514H813.982V72.9114C813.982 74.0634 814.714 74.6394 816.178 74.6394C817.474 74.6394 818.122 74.1954 818.122 73.3074C818.122 72.8274 817.93 72.4674 817.546 72.2274C817.186 71.9874 816.538 71.7834 815.602 71.6154L813.802 71.2914C810.034 70.6194 808.15 68.4834 808.15 64.8834C808.15 62.7954 808.942 61.1754 810.526 60.0234C812.11 58.8714 814.246 58.2954 816.934 58.2954C819.934 58.2954 822.466 58.7994 824.53 59.8074V64.8114H819.058V64.4514C819.058 63.9714 818.89 63.6114 818.554 63.3714C818.242 63.1074 817.774 62.9754 817.15 62.9754C815.95 62.9754 815.35 63.3594 815.35 64.1274C815.35 64.5354 815.518 64.8474 815.854 65.0634C816.19 65.2794 816.802 65.4834 817.69 65.6754L819.742 66.0714C821.878 66.4794 823.402 67.2354 824.314 68.3394C825.226 69.4434 825.682 70.8594 825.682 72.5874C825.682 74.7714 824.914 76.4394 823.378 77.5914C821.866 78.7434 819.706 79.3194 816.898 79.3194ZM868.463 50.8074H879.983V56.7114H878.543L873.179 78.8154H862.415L859.139 63.2634H858.779L855.323 78.8154H844.559L838.835 56.7114H837.395V50.8074H850.715V56.7114H849.347L850.751 65.8914H851.111L854.531 50.8074H864.899L868.067 65.8914H868.427L869.831 56.7114H868.463V50.8074ZM882.792 56.8194V50.8074H890.136V56.8194H882.792ZM881.064 78.8154V72.9114H882.648V64.7034H881.064V58.7994H890.928V72.9114H892.512V78.8154H881.064ZM902.401 79.3194C899.857 79.3194 897.937 78.7074 896.641 77.4834C895.369 76.2354 894.733 74.1474 894.733 71.2194V64.7034H893.149V58.7994C894.061 58.7994 894.745 58.5714 895.201 58.1154C895.657 57.6354 895.885 56.9874 895.885 56.1714V54.5514H903.517V58.7994H908.377V64.7034H903.517V70.6074C903.517 71.3994 903.685 71.9874 904.021 72.3714C904.381 72.7314 904.909 72.9114 905.605 72.9114C906.517 72.9114 907.513 72.8034 908.593 72.5874V78.2394C907.921 78.5034 907.009 78.7434 905.857 78.9594C904.729 79.1994 903.577 79.3194 902.401 79.3194ZM933.656 72.9114V78.8154H922.28V72.9114H923.792V67.0074C923.792 66.2154 923.624 65.6394 923.288 65.2794C922.952 64.8954 922.448 64.7034 921.776 64.7034C920.336 64.7034 919.616 65.4714 919.616 67.0074V72.9114H921.128V78.8154H909.752V72.9114H911.336V56.7114H909.752V50.8074H919.616V61.6074C920.504 60.5034 921.464 59.6754 922.496 59.1234C923.528 58.5714 924.728 58.2954 926.096 58.2954C928.088 58.2954 929.576 58.9194 930.56 60.1674C931.568 61.4154 932.072 63.1314 932.072 65.3154V72.9114H933.656ZM936.546 56.8194V50.8074H943.89V56.8194H936.546ZM934.818 78.8154V72.9114H936.402V64.7034H934.818V58.7994H944.682V72.9114H946.266V78.8154H934.818ZM971.167 72.9114V78.8154H959.791V72.9114H961.303V67.0074C961.303 66.2154 961.135 65.6394 960.799 65.2794C960.463 64.8954 959.959 64.7034 959.287 64.7034C957.847 64.7034 957.127 65.4714 957.127 67.0074V72.9114H958.639V78.8154H947.263V72.9114H948.847V64.7034H947.263V58.7994H957.127V61.6074C958.855 59.3994 961.015 58.2954 963.607 58.2954C965.599 58.2954 967.087 58.9194 968.071 60.1674C969.079 61.4154 969.583 63.1314 969.583 65.3154V72.9114H971.167ZM373.656 121.815V115.911H375.456V99.7114H373.656V93.8074H388.848V99.7114H385.536V115.911H388.776V112.599H395.94V121.815H373.656ZM418.091 115.911V121.815H408.587V119.367C408.059 120.135 407.315 120.819 406.355 121.419C405.419 122.019 404.267 122.319 402.899 122.319C401.099 122.319 399.683 121.839 398.651 120.879C397.619 119.919 397.103 118.563 397.103 116.811C397.103 112.275 400.955 109.947 408.659 109.827C408.587 109.011 408.275 108.459 407.723 108.171C407.171 107.859 406.235 107.703 404.915 107.703C403.835 107.703 402.671 107.823 401.423 108.063C400.199 108.279 399.071 108.579 398.039 108.963V102.339C399.311 102.027 400.691 101.775 402.179 101.583C403.667 101.391 405.119 101.295 406.535 101.295C410.111 101.295 412.667 101.943 414.203 103.239C415.739 104.535 416.507 106.539 416.507 109.251V115.911H418.091ZM408.587 113.391C407.507 113.391 406.667 113.535 406.067 113.823C405.491 114.111 405.203 114.591 405.203 115.263C405.203 115.671 405.323 116.007 405.563 116.271C405.827 116.511 406.187 116.631 406.643 116.631C407.267 116.631 407.747 116.367 408.083 115.839C408.419 115.311 408.587 114.567 408.587 113.607V113.391ZM442.94 115.911V121.815H433.076V119.007C431.348 121.215 429.188 122.319 426.596 122.319C424.604 122.319 423.104 121.695 422.096 120.447C421.112 119.199 420.62 117.483 420.62 115.299V107.703H419.036V101.799H428.9V113.607C428.9 114.399 429.068 114.987 429.404 115.371C429.764 115.731 430.292 115.911 430.988 115.911C431.684 115.911 432.2 115.731 432.536 115.371C432.896 114.987 433.076 114.399 433.076 113.607V107.703H431.132V101.799H441.356V115.911H442.94ZM459.303 101.295C459.783 101.295 460.239 101.343 460.671 101.439C461.103 101.535 461.463 101.655 461.751 101.799V108.675C460.767 108.267 459.711 108.063 458.583 108.063C457.071 108.063 455.907 108.459 455.091 109.251C454.275 110.043 453.867 111.219 453.867 112.779V115.911H457.107V121.815H444.003V115.911H445.587V107.703H444.003V101.799H453.867V104.427C454.539 103.419 455.307 102.651 456.171 102.123C457.035 101.571 458.079 101.295 459.303 101.295ZM473.644 122.319C470.236 122.319 467.572 121.431 465.652 119.655C463.732 117.855 462.772 115.239 462.772 111.807C462.772 108.375 463.732 105.771 465.652 103.995C467.572 102.195 470.236 101.295 473.644 101.295C477.028 101.295 479.464 102.183 480.952 103.959C482.464 105.711 483.22 107.895 483.22 110.511V113.103H471.556V113.319C471.556 114.207 471.82 114.867 472.348 115.299C472.876 115.707 473.752 115.911 474.976 115.911C476.44 115.911 477.832 115.803 479.152 115.587C480.472 115.371 481.624 115.095 482.608 114.759V120.519C481.768 120.975 480.532 121.395 478.9 121.779C477.292 122.139 475.54 122.319 473.644 122.319ZM475.732 109.143V108.711C475.732 107.895 475.552 107.307 475.192 106.947C474.856 106.587 474.34 106.407 473.644 106.407C472.948 106.407 472.42 106.599 472.06 106.983C471.724 107.343 471.556 107.919 471.556 108.711V109.143H475.732ZM508.195 115.911V121.815H496.819V115.911H498.331V110.007C498.331 109.215 498.163 108.639 497.827 108.279C497.491 107.895 496.987 107.703 496.315 107.703C494.875 107.703 494.155 108.471 494.155 110.007V115.911H495.667V121.815H484.291V115.911H485.875V107.703H484.291V101.799H494.155V104.607C495.883 102.399 498.043 101.295 500.635 101.295C502.627 101.295 504.115 101.919 505.099 103.167C506.107 104.415 506.611 106.131 506.611 108.315V115.911H508.195ZM507.86 102.087L509.408 98.4154H507.644V93.8074H512.684V98.4154L510.272 102.087H507.86ZM523.519 122.319C520.495 122.319 517.579 121.839 514.771 120.879V115.551H520.603V115.911C520.603 117.063 521.335 117.639 522.799 117.639C524.095 117.639 524.743 117.195 524.743 116.307C524.743 115.827 524.551 115.467 524.167 115.227C523.807 114.987 523.159 114.783 522.223 114.615L520.423 114.291C516.655 113.619 514.771 111.483 514.771 107.883C514.771 105.795 515.563 104.175 517.147 103.023C518.731 101.871 520.867 101.295 523.555 101.295C526.555 101.295 529.087 101.799 531.151 102.807V107.811H525.679V107.451C525.679 106.971 525.511 106.611 525.175 106.371C524.863 106.107 524.395 105.975 523.771 105.975C522.571 105.975 521.971 106.359 521.971 107.127C521.971 107.535 522.139 107.847 522.475 108.063C522.811 108.279 523.423 108.483 524.311 108.675L526.363 109.071C528.499 109.479 530.023 110.235 530.935 111.339C531.847 112.443 532.303 113.859 532.303 115.587C532.303 117.771 531.535 119.439 529.999 120.591C528.487 121.743 526.327 122.319 523.519 122.319ZM544.304 121.815V115.911H546.104V99.7114H544.304V93.8074H565.832V103.131H559.46V99.7114H556.184V105.687H561.62V109.791H556.184V115.911H560.9V121.815H544.304ZM587.263 115.911V121.815H577.759V119.367C577.231 120.135 576.487 120.819 575.527 121.419C574.591 122.019 573.439 122.319 572.071 122.319C570.271 122.319 568.855 121.839 567.823 120.879C566.791 119.919 566.275 118.563 566.275 116.811C566.275 112.275 570.127 109.947 577.831 109.827C577.759 109.011 577.447 108.459 576.895 108.171C576.343 107.859 575.407 107.703 574.087 107.703C573.007 107.703 571.843 107.823 570.595 108.063C569.371 108.279 568.243 108.579 567.211 108.963V102.339C568.483 102.027 569.863 101.775 571.351 101.583C572.839 101.391 574.291 101.295 575.707 101.295C579.283 101.295 581.839 101.943 583.375 103.239C584.911 104.535 585.679 106.539 585.679 109.251V115.911H587.263ZM577.759 113.391C576.679 113.391 575.839 113.535 575.239 113.823C574.663 114.111 574.375 114.591 574.375 115.263C574.375 115.671 574.495 116.007 574.735 116.271C574.999 116.511 575.359 116.631 575.815 116.631C576.439 116.631 576.919 116.367 577.255 115.839C577.591 115.311 577.759 114.567 577.759 113.607V113.391ZM624.783 115.911V121.815H613.407V115.911H614.919V110.007C614.919 109.215 614.751 108.639 614.415 108.279C614.079 107.895 613.575 107.703 612.903 107.703C611.463 107.703 610.743 108.471 610.743 110.007V115.911H612.255V121.815H600.951V115.911H602.463V110.007C602.463 109.215 602.295 108.639 601.959 108.279C601.623 107.895 601.119 107.703 600.447 107.703C599.007 107.703 598.287 108.471 598.287 110.007V115.911H599.799V121.815H588.423V115.911H590.007V107.703H588.423V101.799H598.287V104.607C600.015 102.399 602.175 101.295 604.767 101.295C606.231 101.295 607.419 101.643 608.331 102.339C609.267 103.011 609.927 103.971 610.311 105.219C611.175 103.971 612.159 103.011 613.263 102.339C614.391 101.667 615.711 101.331 617.223 101.331C619.215 101.331 620.703 101.955 621.687 103.203C622.695 104.451 623.199 106.167 623.199 108.351V115.911H624.783ZM627.663 99.8194V93.8074H635.007V99.8194H627.663ZM625.935 121.815V115.911H627.519V107.703H625.935V101.799H635.799V115.911H637.383V121.815H625.935ZM638.38 121.851V115.911H639.964V99.7114H638.38V93.8074H648.244V115.911H649.828V121.851H638.38ZM672.638 101.799V107.703H671.27L666.554 120.195C665.378 123.339 664.034 125.691 662.522 127.251C661.01 128.835 659.018 129.627 656.546 129.627C655.538 129.627 654.518 129.519 653.486 129.303C652.454 129.111 651.518 128.835 650.678 128.475V121.959H655.646V122.319C655.646 122.919 655.958 123.219 656.582 123.219C657.134 123.219 657.554 122.955 657.842 122.427L652.154 107.703H650.786V101.799H661.478V107.703H660.254L662.126 113.319L663.854 107.703H662.63V101.799H672.638Z" fill="#FF5722"/>
</g>
<defs>
<clipPath id="clip0_69_5358">
<rect width="1045" height="130" fill="white" transform="translate(0.5 0.81543)"/>
</clipPath>
</defs>
</svg>
