<svg width="1312" height="131" viewBox="0 0 1312 131" fill="none" xmlns="http://www.w3.org/2000/svg">
<g clip-path="url(#clip0_69_5359)">
<path d="M580.724 27.8154V10.3609H587.61C588.934 10.3609 590.062 10.6137 590.994 11.1194C591.926 11.6194 592.636 12.3154 593.125 13.2075C593.619 14.0938 593.866 15.1166 593.866 16.2757C593.866 17.4347 593.616 18.4575 593.116 19.3438C592.616 20.2302 591.892 20.9205 590.943 21.4149C590 21.9092 588.858 22.1563 587.517 22.1563H583.127V19.199H586.92C587.63 19.199 588.216 19.0768 588.676 18.8325C589.142 18.5825 589.488 18.2387 589.716 17.8012C589.949 17.358 590.065 16.8495 590.065 16.2757C590.065 15.6961 589.949 15.1904 589.716 14.7586C589.488 14.3211 589.142 13.983 588.676 13.7444C588.21 13.5001 587.619 13.3779 586.903 13.3779H584.414V27.8154H580.724ZM596.195 27.8154V14.7245H599.715V17.0086H599.851C600.09 16.1961 600.49 15.5825 601.053 15.1677C601.615 14.7472 602.263 14.537 602.996 14.537C603.178 14.537 603.374 14.5484 603.584 14.5711C603.794 14.5938 603.979 14.6251 604.138 14.6649V17.8865C603.968 17.8353 603.732 17.7899 603.431 17.7501C603.13 17.7103 602.854 17.6904 602.604 17.6904C602.07 17.6904 601.593 17.8069 601.172 18.0399C600.757 18.2671 600.428 18.5853 600.184 18.9944C599.945 19.4035 599.826 19.8751 599.826 20.4092V27.8154H596.195ZM611.321 28.0711C609.997 28.0711 608.852 27.7899 607.886 27.2274C606.926 26.6592 606.184 25.8694 605.662 24.858C605.139 23.841 604.877 22.662 604.877 21.3211C604.877 19.9688 605.139 18.787 605.662 17.7757C606.184 16.7586 606.926 15.9688 607.886 15.4063C608.852 14.8382 609.997 14.5541 611.321 14.5541C612.645 14.5541 613.787 14.8382 614.747 15.4063C615.713 15.9688 616.457 16.7586 616.98 17.7757C617.502 18.787 617.764 19.9688 617.764 21.3211C617.764 22.662 617.502 23.841 616.98 24.858C616.457 25.8694 615.713 26.6592 614.747 27.2274C613.787 27.7899 612.645 28.0711 611.321 28.0711ZM611.338 25.2586C611.94 25.2586 612.443 25.0882 612.846 24.7472C613.25 24.4007 613.554 23.9291 613.758 23.3325C613.968 22.7359 614.074 22.0569 614.074 21.2955C614.074 20.5342 613.968 19.8552 613.758 19.2586C613.554 18.662 613.25 18.1904 612.846 17.8438C612.443 17.4972 611.94 17.324 611.338 17.324C610.73 17.324 610.218 17.4972 609.804 17.8438C609.395 18.1904 609.085 18.662 608.875 19.2586C608.67 19.8552 608.568 20.5342 608.568 21.2955C608.568 22.0569 608.67 22.7359 608.875 23.3325C609.085 23.9291 609.395 24.4007 609.804 24.7472C610.218 25.0882 610.73 25.2586 611.338 25.2586ZM626.039 28.0711C624.716 28.0711 623.571 27.7899 622.605 27.2274C621.645 26.6592 620.903 25.8694 620.38 24.858C619.858 23.841 619.596 22.662 619.596 21.3211C619.596 19.9688 619.858 18.787 620.38 17.7757C620.903 16.7586 621.645 15.9688 622.605 15.4063C623.571 14.8382 624.716 14.5541 626.039 14.5541C627.363 14.5541 628.505 14.8382 629.466 15.4063C630.431 15.9688 631.176 16.7586 631.699 17.7757C632.221 18.787 632.483 19.9688 632.483 21.3211C632.483 22.662 632.221 23.841 631.699 24.858C631.176 25.8694 630.431 26.6592 629.466 27.2274C628.505 27.7899 627.363 28.0711 626.039 28.0711ZM626.056 25.2586C626.659 25.2586 627.162 25.0882 627.565 24.7472C627.968 24.4007 628.272 23.9291 628.477 23.3325C628.687 22.7359 628.792 22.0569 628.792 21.2955C628.792 20.5342 628.687 19.8552 628.477 19.2586C628.272 18.662 627.968 18.1904 627.565 17.8438C627.162 17.4972 626.659 17.324 626.056 17.324C625.449 17.324 624.937 17.4972 624.522 17.8438C624.113 18.1904 623.804 18.662 623.593 19.2586C623.389 19.8552 623.287 20.5342 623.287 21.2955C623.287 22.0569 623.389 22.7359 623.593 23.3325C623.804 23.9291 624.113 24.4007 624.522 24.7472C624.937 25.0882 625.449 25.2586 626.056 25.2586ZM641.883 14.7245V17.4518H633.804V14.7245H641.883ZM635.653 27.8154V13.7785C635.653 12.8296 635.838 12.0427 636.207 11.4177C636.582 10.7927 637.093 10.324 637.741 10.0115C638.389 9.69895 639.125 9.5427 639.949 9.5427C640.505 9.5427 641.014 9.58532 641.474 9.67054C641.94 9.75577 642.287 9.83247 642.514 9.90066L641.866 12.6279C641.724 12.5825 641.548 12.5399 641.338 12.5001C641.133 12.4603 640.923 12.4404 640.707 12.4404C640.173 12.4404 639.801 12.5654 639.591 12.8154C639.38 13.0597 639.275 13.4035 639.275 13.8467V27.8154H635.653ZM659.193 15.3808C659.125 14.6933 658.832 14.1592 658.315 13.7785C657.798 13.3978 657.096 13.2075 656.21 13.2075C655.608 13.2075 655.099 13.2927 654.684 13.4632C654.27 13.6279 653.951 13.858 653.73 14.1535C653.514 14.449 653.406 14.7842 653.406 15.1592C653.395 15.4717 653.46 15.7444 653.602 15.9774C653.75 16.2103 653.951 16.412 654.207 16.5825C654.463 16.7472 654.758 16.8921 655.093 17.0171C655.429 17.1365 655.787 17.2387 656.167 17.324L657.735 17.699C658.497 17.8694 659.196 18.0967 659.832 18.3808C660.468 18.6649 661.02 19.0143 661.485 19.4291C661.951 19.8438 662.312 20.3325 662.568 20.895C662.829 21.4575 662.963 22.1024 662.968 22.8296C662.963 23.8978 662.69 24.824 662.15 25.608C661.616 26.3865 660.843 26.9916 659.832 27.4234C658.826 27.8495 657.613 28.0626 656.193 28.0626C654.784 28.0626 653.556 27.8467 652.511 27.4149C651.471 26.983 650.659 26.3438 650.074 25.4972C649.494 24.645 649.19 23.591 649.162 22.3353H652.733C652.772 22.9205 652.94 23.4092 653.235 23.8012C653.537 24.1876 653.937 24.4802 654.437 24.6791C654.943 24.8722 655.514 24.9688 656.15 24.9688C656.775 24.9688 657.318 24.8779 657.778 24.6961C658.244 24.5143 658.605 24.2615 658.86 23.9376C659.116 23.6137 659.244 23.2416 659.244 22.8211C659.244 22.4291 659.127 22.0995 658.895 21.8325C658.667 21.5654 658.332 21.3382 657.889 21.1507C657.451 20.9632 656.914 20.7927 656.278 20.6393L654.377 20.162C652.906 19.8041 651.744 19.2444 650.892 18.483C650.039 17.7217 649.616 16.6961 649.622 15.4063C649.616 14.3495 649.897 13.4262 650.466 12.6365C651.039 11.8467 651.826 11.2302 652.826 10.787C653.826 10.3438 654.963 10.1222 656.235 10.1222C657.531 10.1222 658.662 10.3438 659.627 10.787C660.599 11.2302 661.355 11.8467 661.895 12.6365C662.434 13.4262 662.713 14.341 662.73 15.3808H659.193ZM672.346 14.7245V17.4518H664.462V14.7245H672.346ZM666.252 11.5882H669.882V23.7927C669.882 24.1279 669.934 24.3893 670.036 24.5768C670.138 24.7586 670.28 24.8865 670.462 24.9603C670.65 25.0342 670.865 25.0711 671.11 25.0711C671.28 25.0711 671.451 25.0569 671.621 25.0285C671.792 24.9944 671.922 24.9688 672.013 24.9518L672.584 27.6535C672.402 27.7103 672.147 27.7757 671.817 27.8495C671.488 27.9291 671.087 27.9774 670.615 27.9944C669.74 28.0285 668.973 27.912 668.314 27.645C667.661 27.3779 667.152 26.9632 666.789 26.4007C666.425 25.8382 666.246 25.1279 666.252 24.27V11.5882ZM680.485 28.0711C679.161 28.0711 678.016 27.7899 677.05 27.2274C676.09 26.6592 675.348 25.8694 674.826 24.858C674.303 23.841 674.042 22.662 674.042 21.3211C674.042 19.9688 674.303 18.787 674.826 17.7757C675.348 16.7586 676.09 15.9688 677.05 15.4063C678.016 14.8382 679.161 14.5541 680.485 14.5541C681.809 14.5541 682.951 14.8382 683.911 15.4063C684.877 15.9688 685.621 16.7586 686.144 17.7757C686.667 18.787 686.928 19.9688 686.928 21.3211C686.928 22.662 686.667 23.841 686.144 24.858C685.621 25.8694 684.877 26.6592 683.911 27.2274C682.951 27.7899 681.809 28.0711 680.485 28.0711ZM680.502 25.2586C681.104 25.2586 681.607 25.0882 682.01 24.7472C682.414 24.4007 682.718 23.9291 682.922 23.3325C683.132 22.7359 683.238 22.0569 683.238 21.2955C683.238 20.5342 683.132 19.8552 682.922 19.2586C682.718 18.662 682.414 18.1904 682.01 17.8438C681.607 17.4972 681.104 17.324 680.502 17.324C679.894 17.324 679.382 17.4972 678.968 17.8438C678.559 18.1904 678.249 18.662 678.039 19.2586C677.834 19.8552 677.732 20.5342 677.732 21.2955C677.732 22.0569 677.834 22.7359 678.039 23.3325C678.249 23.9291 678.559 24.4007 678.968 24.7472C679.382 25.0882 679.894 25.2586 680.502 25.2586ZM689.289 27.8154V14.7245H692.809V17.0086H692.945C693.184 16.1961 693.584 15.5825 694.147 15.1677C694.709 14.7472 695.357 14.537 696.09 14.537C696.272 14.537 696.468 14.5484 696.678 14.5711C696.888 14.5938 697.073 14.6251 697.232 14.6649V17.8865C697.061 17.8353 696.826 17.7899 696.525 17.7501C696.223 17.7103 695.948 17.6904 695.698 17.6904C695.164 17.6904 694.686 17.8069 694.266 18.0399C693.851 18.2671 693.522 18.5853 693.277 18.9944C693.039 19.4035 692.919 19.8751 692.919 20.4092V27.8154H689.289ZM701.749 32.7245C701.289 32.7245 700.857 32.6876 700.453 32.6137C700.056 32.5455 699.726 32.4575 699.465 32.3495L700.283 29.6393C700.709 29.77 701.093 29.841 701.434 29.8524C701.78 29.8637 702.078 29.7842 702.328 29.6137C702.584 29.4433 702.792 29.1535 702.951 28.7444L703.164 28.1904L698.468 14.7245H702.286L704.996 24.3382H705.132L707.868 14.7245H711.712L706.624 29.2302C706.38 29.9347 706.047 30.5484 705.627 31.0711C705.212 31.5995 704.686 32.0058 704.05 32.2899C703.414 32.5796 702.647 32.7245 701.749 32.7245ZM719.091 27.8154V25.1563L725.304 19.4035C725.832 18.8921 726.275 18.4319 726.633 18.0228C726.997 17.6137 727.272 17.2132 727.46 16.8211C727.647 16.4234 727.741 15.9944 727.741 15.5342C727.741 15.0228 727.625 14.5825 727.392 14.2132C727.159 13.8382 726.841 13.5512 726.437 13.3524C726.034 13.1478 725.576 13.0455 725.065 13.0455C724.531 13.0455 724.065 13.1535 723.667 13.3694C723.27 13.5853 722.963 13.895 722.747 14.2984C722.531 14.7018 722.423 15.1819 722.423 15.7387H718.92C718.92 14.5967 719.179 13.6052 719.696 12.7643C720.213 11.9234 720.937 11.2728 721.869 10.8126C722.801 10.3524 723.875 10.1222 725.091 10.1222C726.341 10.1222 727.429 10.3438 728.355 10.787C729.287 11.2245 730.011 11.8325 730.528 12.6109C731.045 13.3893 731.304 14.2813 731.304 15.287C731.304 15.9461 731.173 16.5967 730.912 17.2387C730.656 17.8808 730.199 18.5938 729.539 19.3779C728.88 20.1563 727.951 21.091 726.752 22.1819L724.204 24.6791V24.7984H731.534V27.8154H719.091Z" fill="#1C3AA9"/>
<path d="M137.579 79.3194C133.043 79.3194 129.539 78.1674 127.067 75.8634C124.619 73.5594 123.395 69.8754 123.395 64.8114C123.395 55.1394 128.099 50.3034 137.507 50.3034C139.787 50.3034 141.899 50.5794 143.843 51.1314C145.811 51.6834 147.275 52.2954 148.235 52.9674V61.9674H139.595V59.3754C139.595 58.4634 139.391 57.7914 138.983 57.3594C138.575 56.9274 137.963 56.7114 137.147 56.7114C136.331 56.7114 135.719 56.9274 135.311 57.3594C134.903 57.7914 134.699 58.4634 134.699 59.3754V70.2474C134.699 71.1594 134.903 71.8314 135.311 72.2634C135.719 72.6954 136.331 72.9114 137.147 72.9114C137.963 72.9114 138.575 72.6954 138.983 72.2634C139.391 71.8314 139.595 71.1594 139.595 70.2474V67.3314H148.235V76.6554C147.251 77.3274 145.787 77.9394 143.843 78.4914C141.923 79.0434 139.835 79.3194 137.579 79.3194ZM160.247 79.3194C156.839 79.3194 154.175 78.4314 152.255 76.6554C150.335 74.8554 149.375 72.2394 149.375 68.8074C149.375 65.3754 150.335 62.7714 152.255 60.9954C154.175 59.1954 156.839 58.2954 160.247 58.2954C163.703 58.2954 166.379 59.2074 168.275 61.0314C170.171 62.8314 171.119 65.4234 171.119 68.8074C171.119 72.2394 170.159 74.8554 168.239 76.6554C166.319 78.4314 163.655 79.3194 160.247 79.3194ZM160.247 72.9114C160.943 72.9114 161.459 72.7314 161.795 72.3714C162.155 71.9874 162.335 71.3994 162.335 70.6074V67.0074C162.335 66.2154 162.155 65.6394 161.795 65.2794C161.459 64.8954 160.943 64.7034 160.247 64.7034C159.551 64.7034 159.023 64.8954 158.663 65.2794C158.327 65.6394 158.159 66.2154 158.159 67.0074V70.6074C158.159 71.3994 158.327 71.9874 158.663 72.3714C159.023 72.7314 159.551 72.9114 160.247 72.9114ZM208.625 72.9114V78.8154H197.249V72.9114H198.761V67.0074C198.761 66.2154 198.593 65.6394 198.257 65.2794C197.921 64.8954 197.417 64.7034 196.745 64.7034C195.305 64.7034 194.585 65.4714 194.585 67.0074V72.9114H196.097V78.8154H184.793V72.9114H186.305V67.0074C186.305 66.2154 186.137 65.6394 185.801 65.2794C185.465 64.8954 184.961 64.7034 184.289 64.7034C182.849 64.7034 182.129 65.4714 182.129 67.0074V72.9114H183.641V78.8154H172.265V72.9114H173.849V64.7034H172.265V58.7994H182.129V61.6074C183.857 59.3994 186.017 58.2954 188.609 58.2954C190.073 58.2954 191.261 58.6434 192.173 59.3394C193.109 60.0114 193.769 60.9714 194.153 62.2194C195.017 60.9714 196.001 60.0114 197.105 59.3394C198.233 58.6674 199.553 58.3314 201.065 58.3314C203.057 58.3314 204.545 58.9554 205.529 60.2034C206.537 61.4514 207.041 63.1674 207.041 65.3514V72.9114H208.625ZM246.137 72.9114V78.8154H234.761V72.9114H236.273V67.0074C236.273 66.2154 236.105 65.6394 235.769 65.2794C235.433 64.8954 234.929 64.7034 234.257 64.7034C232.817 64.7034 232.097 65.4714 232.097 67.0074V72.9114H233.609V78.8154H222.305V72.9114H223.817V67.0074C223.817 66.2154 223.649 65.6394 223.313 65.2794C222.977 64.8954 222.473 64.7034 221.801 64.7034C220.361 64.7034 219.641 65.4714 219.641 67.0074V72.9114H221.153V78.8154H209.777V72.9114H211.361V64.7034H209.777V58.7994H219.641V61.6074C221.369 59.3994 223.529 58.2954 226.121 58.2954C227.585 58.2954 228.773 58.6434 229.685 59.3394C230.621 60.0114 231.281 60.9714 231.665 62.2194C232.529 60.9714 233.513 60.0114 234.617 59.3394C235.745 58.6674 237.065 58.3314 238.577 58.3314C240.569 58.3314 242.057 58.9554 243.041 60.2034C244.049 61.4514 244.553 63.1674 244.553 65.3514V72.9114H246.137ZM270.977 72.9114V78.8154H261.113V76.0074C259.385 78.2154 257.225 79.3194 254.633 79.3194C252.641 79.3194 251.141 78.6954 250.133 77.4474C249.149 76.1994 248.657 74.4834 248.657 72.2994V64.7034H247.073V58.7994H256.937V70.6074C256.937 71.3994 257.105 71.9874 257.441 72.3714C257.801 72.7314 258.329 72.9114 259.025 72.9114C259.721 72.9114 260.237 72.7314 260.573 72.3714C260.933 71.9874 261.113 71.3994 261.113 70.6074V64.7034H259.169V58.7994H269.393V72.9114H270.977ZM295.872 72.9114V78.8154H284.496V72.9114H286.008V67.0074C286.008 66.2154 285.84 65.6394 285.504 65.2794C285.168 64.8954 284.664 64.7034 283.992 64.7034C282.552 64.7034 281.832 65.4714 281.832 67.0074V72.9114H283.344V78.8154H271.968V72.9114H273.552V64.7034H271.968V58.7994H281.832V61.6074C283.56 59.3994 285.72 58.2954 288.312 58.2954C290.304 58.2954 291.792 58.9194 292.776 60.1674C293.784 61.4154 294.288 63.1314 294.288 65.3154V72.9114H295.872ZM298.763 56.8194V50.8074H306.107V56.8194H298.763ZM297.035 78.8154V72.9114H298.619V64.7034H297.035V58.7994H306.899V72.9114H308.483V78.8154H297.035ZM318.372 79.3194C315.828 79.3194 313.908 78.7074 312.612 77.4834C311.34 76.2354 310.704 74.1474 310.704 71.2194V64.7034H309.12V58.7994C310.032 58.7994 310.716 58.5714 311.172 58.1154C311.628 57.6354 311.856 56.9874 311.856 56.1714V54.5514H319.488V58.7994H324.348V64.7034H319.488V70.6074C319.488 71.3994 319.656 71.9874 319.992 72.3714C320.352 72.7314 320.88 72.9114 321.576 72.9114C322.488 72.9114 323.484 72.8034 324.564 72.5874V78.2394C323.892 78.5034 322.98 78.7434 321.828 78.9594C320.7 79.1994 319.548 79.3194 318.372 79.3194ZM347.394 58.7994V64.7034H346.026L341.31 77.1954C340.134 80.3394 338.79 82.6914 337.278 84.2514C335.766 85.8354 333.774 86.6274 331.302 86.6274C330.294 86.6274 329.274 86.5194 328.242 86.3034C327.21 86.1114 326.274 85.8354 325.434 85.4754V78.9594H330.402V79.3194C330.402 79.9194 330.714 80.2194 331.338 80.2194C331.89 80.2194 332.31 79.9554 332.598 79.4274L326.91 64.7034H325.542V58.7994H336.234V64.7034H335.01L336.882 70.3194L338.61 64.7034H337.386V58.7994H347.394ZM349.044 71.6514V65.7474H360.6V71.6514H349.044ZM373.693 79.3194C371.389 79.3194 369.205 79.1274 367.141 78.7434C365.101 78.3354 363.529 77.8794 362.425 77.3754V70.2474H370.345C370.345 70.9914 370.513 71.5314 370.849 71.8674C371.185 72.2034 371.797 72.3714 372.685 72.3714C373.429 72.3714 373.957 72.2634 374.269 72.0474C374.605 71.8074 374.773 71.4594 374.773 71.0034C374.773 70.6194 374.617 70.2954 374.305 70.0314C373.993 69.7434 373.453 69.4554 372.685 69.1674L369.589 68.0874C366.925 67.0794 365.005 65.8914 363.829 64.5234C362.677 63.1554 362.101 61.3074 362.101 58.9794C362.101 56.1474 363.025 53.9994 364.873 52.5354C366.745 51.0474 369.853 50.3034 374.197 50.3034C376.285 50.3034 378.241 50.5194 380.065 50.9514C381.913 51.3594 383.401 51.9114 384.529 52.6074V59.0514H377.329C377.329 57.8514 376.585 57.2514 375.097 57.2514C374.377 57.2514 373.861 57.3474 373.549 57.5394C373.261 57.7074 373.117 58.0194 373.117 58.4754C373.117 58.8834 373.285 59.2074 373.621 59.4474C373.981 59.6874 374.557 59.9394 375.349 60.2034L378.481 61.2834C381.025 62.1474 382.873 63.2754 384.025 64.6674C385.201 66.0354 385.789 67.8354 385.789 70.0674C385.789 73.1154 384.757 75.4194 382.693 76.9794C380.653 78.5394 377.653 79.3194 373.693 79.3194ZM410.622 72.9114V78.8154H399.246V72.9114H400.758V67.0074C400.758 66.2154 400.59 65.6394 400.254 65.2794C399.918 64.8954 399.414 64.7034 398.742 64.7034C397.302 64.7034 396.582 65.4714 396.582 67.0074V72.9114H398.094V78.8154H386.718V72.9114H388.302V56.7114H386.718V50.8074H396.582V61.6074C397.47 60.5034 398.43 59.6754 399.462 59.1234C400.494 58.5714 401.694 58.2954 403.062 58.2954C405.054 58.2954 406.542 58.9194 407.526 60.1674C408.534 61.4154 409.038 63.1314 409.038 65.3154V72.9114H410.622ZM432.773 72.9114V78.8154H423.269V76.3674C422.741 77.1354 421.997 77.8194 421.037 78.4194C420.101 79.0194 418.949 79.3194 417.581 79.3194C415.781 79.3194 414.365 78.8394 413.333 77.8794C412.301 76.9194 411.785 75.5634 411.785 73.8114C411.785 69.2754 415.637 66.9474 423.341 66.8274C423.269 66.0114 422.957 65.4594 422.405 65.1714C421.853 64.8594 420.917 64.7034 419.597 64.7034C418.517 64.7034 417.353 64.8234 416.105 65.0634C414.881 65.2794 413.753 65.5794 412.721 65.9634V59.3394C413.993 59.0274 415.373 58.7754 416.861 58.5834C418.349 58.3914 419.801 58.2954 421.217 58.2954C424.793 58.2954 427.349 58.9434 428.885 60.2394C430.421 61.5354 431.189 63.5394 431.189 66.2514V72.9114H432.773ZM423.269 70.3914C422.189 70.3914 421.349 70.5354 420.749 70.8234C420.173 71.1114 419.885 71.5914 419.885 72.2634C419.885 72.6714 420.005 73.0074 420.245 73.2714C420.509 73.5114 420.869 73.6314 421.325 73.6314C421.949 73.6314 422.429 73.3674 422.765 72.8394C423.101 72.3114 423.269 71.5674 423.269 70.6074V70.3914ZM449.305 58.2954C449.785 58.2954 450.241 58.3434 450.673 58.4394C451.105 58.5354 451.465 58.6554 451.753 58.7994V65.6754C450.769 65.2674 449.713 65.0634 448.585 65.0634C447.073 65.0634 445.909 65.4594 445.093 66.2514C444.277 67.0434 443.869 68.2194 443.869 69.7794V72.9114H447.109V78.8154H434.005V72.9114H435.589V64.7034H434.005V58.7994H443.869V61.4274C444.541 60.4194 445.309 59.6514 446.173 59.1234C447.037 58.5714 448.081 58.2954 449.305 58.2954ZM463.646 79.3194C460.238 79.3194 457.574 78.4314 455.654 76.6554C453.734 74.8554 452.774 72.2394 452.774 68.8074C452.774 65.3754 453.734 62.7714 455.654 60.9954C457.574 59.1954 460.238 58.2954 463.646 58.2954C467.03 58.2954 469.466 59.1834 470.954 60.9594C472.466 62.7114 473.222 64.8954 473.222 67.5114V70.1034H461.558V70.3194C461.558 71.2074 461.822 71.8674 462.35 72.2994C462.878 72.7074 463.754 72.9114 464.978 72.9114C466.442 72.9114 467.834 72.8034 469.154 72.5874C470.474 72.3714 471.626 72.0954 472.61 71.7594V77.5194C471.77 77.9754 470.534 78.3954 468.902 78.7794C467.294 79.1394 465.542 79.3194 463.646 79.3194ZM465.734 66.1434V65.7114C465.734 64.8954 465.554 64.3074 465.194 63.9474C464.858 63.5874 464.342 63.4074 463.646 63.4074C462.95 63.4074 462.422 63.5994 462.062 63.9834C461.726 64.3434 461.558 64.9194 461.558 65.7114V66.1434H465.734ZM481.385 79.3194C478.937 79.3194 477.089 78.4074 475.841 76.5834C474.617 74.7594 474.005 72.1674 474.005 68.8074C474.005 65.4474 474.617 62.8554 475.841 61.0314C477.089 59.2074 478.937 58.2954 481.385 58.2954C482.609 58.2954 483.689 58.5954 484.625 59.1954C485.585 59.7954 486.365 60.4794 486.965 61.2474V56.7114H484.841V50.8074H495.245V72.9114H496.829V78.8154H486.965V76.3674C486.365 77.1354 485.585 77.8194 484.625 78.4194C483.689 79.0194 482.609 79.3194 481.385 79.3194ZM484.877 72.9114C485.573 72.9114 486.089 72.7314 486.425 72.3714C486.785 71.9874 486.965 71.3994 486.965 70.6074V67.0074C486.965 66.2154 486.785 65.6394 486.425 65.2794C486.089 64.8954 485.573 64.7034 484.877 64.7034C484.181 64.7034 483.653 64.8954 483.293 65.2794C482.957 65.6394 482.789 66.2154 482.789 67.0074V70.6074C482.789 71.3994 482.957 71.9874 483.293 72.3714C483.653 72.7314 484.181 72.9114 484.877 72.9114ZM498.78 84.6114L500.652 78.8154H498.816V72.9114H504.432V78.8154L501.876 84.6114H498.78ZM964.474 79.3194C961.93 79.3194 960.01 78.7074 958.714 77.4834C957.442 76.2354 956.806 74.1474 956.806 71.2194V64.7034H955.222V58.7994C956.134 58.7994 956.818 58.5714 957.274 58.1154C957.73 57.6354 957.958 56.9874 957.958 56.1714V54.5514H965.59V58.7994H970.45V64.7034H965.59V70.6074C965.59 71.3994 965.758 71.9874 966.094 72.3714C966.454 72.7314 966.982 72.9114 967.678 72.9114C968.59 72.9114 969.586 72.8034 970.666 72.5874V78.2394C969.994 78.5034 969.082 78.7434 967.93 78.9594C966.802 79.1994 965.65 79.3194 964.474 79.3194ZM982.552 79.3194C979.144 79.3194 976.48 78.4314 974.56 76.6554C972.64 74.8554 971.68 72.2394 971.68 68.8074C971.68 65.3754 972.64 62.7714 974.56 60.9954C976.48 59.1954 979.144 58.2954 982.552 58.2954C986.008 58.2954 988.684 59.2074 990.58 61.0314C992.476 62.8314 993.424 65.4234 993.424 68.8074C993.424 72.2394 992.464 74.8554 990.544 76.6554C988.624 78.4314 985.96 79.3194 982.552 79.3194ZM982.552 72.9114C983.248 72.9114 983.764 72.7314 984.1 72.3714C984.46 71.9874 984.64 71.3994 984.64 70.6074V67.0074C984.64 66.2154 984.46 65.6394 984.1 65.2794C983.764 64.8954 983.248 64.7034 982.552 64.7034C981.856 64.7034 981.328 64.8954 980.968 65.2794C980.632 65.6394 980.464 66.2154 980.464 67.0074V70.6074C980.464 71.3994 980.632 71.9874 980.968 72.3714C981.328 72.7314 981.856 72.9114 982.552 72.9114ZM1005.43 78.8154V72.9114H1007.23V56.7114H1005.43V50.8074H1029.73V61.6794H1021.67V56.7114H1017.31V62.3994H1020.48V66.5034H1017.31V72.9114H1021.67V67.2234H1029.73V78.8154H1005.43ZM1067.39 72.9114V78.8154H1056.01V72.9114H1057.52V67.0074C1057.52 66.2154 1057.35 65.6394 1057.02 65.2794C1056.68 64.8954 1056.18 64.7034 1055.51 64.7034C1054.07 64.7034 1053.35 65.4714 1053.35 67.0074V72.9114H1054.86V78.8154H1043.55V72.9114H1045.07V67.0074C1045.07 66.2154 1044.9 65.6394 1044.56 65.2794C1044.23 64.8954 1043.72 64.7034 1043.05 64.7034C1041.61 64.7034 1040.89 65.4714 1040.89 67.0074V72.9114H1042.4V78.8154H1031.03V72.9114H1032.61V64.7034H1031.03V58.7994H1040.89V61.6074C1042.62 59.3994 1044.78 58.2954 1047.37 58.2954C1048.83 58.2954 1050.02 58.6434 1050.93 59.3394C1051.87 60.0114 1052.53 60.9714 1052.91 62.2194C1053.78 60.9714 1054.76 60.0114 1055.87 59.3394C1056.99 58.6674 1058.31 58.3314 1059.83 58.3314C1061.82 58.3314 1063.31 58.9554 1064.29 60.2034C1065.3 61.4514 1065.8 63.1674 1065.8 65.3514V72.9114H1067.39ZM1068.39 80.9034H1069.98V64.7034H1068.39V58.7994H1078.26V61.2474C1078.86 60.4794 1079.63 59.7954 1080.56 59.1954C1081.52 58.5954 1082.61 58.2954 1083.84 58.2954C1086.29 58.2954 1088.12 59.2074 1089.35 61.0314C1090.59 62.8554 1091.22 65.4474 1091.22 68.8074C1091.22 72.1674 1090.59 74.7594 1089.35 76.5834C1088.12 78.4074 1086.29 79.3194 1083.84 79.3194C1082.61 79.3194 1081.52 79.0194 1080.56 78.4194C1079.63 77.8194 1078.86 77.1354 1078.26 76.3674V80.9034H1080.74V86.8074H1068.39V80.9034ZM1080.35 72.9114C1081.04 72.9114 1081.56 72.7314 1081.89 72.3714C1082.25 71.9874 1082.43 71.3994 1082.43 70.6074V67.0074C1082.43 66.2154 1082.25 65.6394 1081.89 65.2794C1081.56 64.8954 1081.04 64.7034 1080.35 64.7034C1079.65 64.7034 1079.12 64.8954 1078.76 65.2794C1078.43 65.6394 1078.26 66.2154 1078.26 67.0074V70.6074C1078.26 71.3994 1078.43 71.9874 1078.76 72.3714C1079.12 72.7314 1079.65 72.9114 1080.35 72.9114ZM1102.96 79.3194C1099.55 79.3194 1096.89 78.4314 1094.97 76.6554C1093.05 74.8554 1092.09 72.2394 1092.09 68.8074C1092.09 65.3754 1093.05 62.7714 1094.97 60.9954C1096.89 59.1954 1099.55 58.2954 1102.96 58.2954C1106.42 58.2954 1109.09 59.2074 1110.99 61.0314C1112.89 62.8314 1113.83 65.4234 1113.83 68.8074C1113.83 72.2394 1112.87 74.8554 1110.95 76.6554C1109.03 78.4314 1106.37 79.3194 1102.96 79.3194ZM1102.96 72.9114C1103.66 72.9114 1104.17 72.7314 1104.51 72.3714C1104.87 71.9874 1105.05 71.3994 1105.05 70.6074V67.0074C1105.05 66.2154 1104.87 65.6394 1104.51 65.2794C1104.17 64.8954 1103.66 64.7034 1102.96 64.7034C1102.27 64.7034 1101.74 64.8954 1101.38 65.2794C1101.04 65.6394 1100.87 66.2154 1100.87 67.0074V70.6074C1100.87 71.3994 1101.04 71.9874 1101.38 72.3714C1101.74 72.7314 1102.27 72.9114 1102.96 72.9114ZM1120.96 78.8154L1116.2 64.7034H1114.69V58.7994H1125.82V64.7034H1124.3L1125.6 70.3194H1125.96L1128.59 58.7994H1135.21L1137.84 70.3194H1138.2L1139.46 64.7034H1137.95V58.7994H1148.39V64.7034H1146.88L1142.3 78.8154H1133.56L1131.58 68.8074H1131.22L1129.24 78.8154H1120.96ZM1160.13 79.3194C1156.72 79.3194 1154.05 78.4314 1152.13 76.6554C1150.21 74.8554 1149.25 72.2394 1149.25 68.8074C1149.25 65.3754 1150.21 62.7714 1152.13 60.9954C1154.05 59.1954 1156.72 58.2954 1160.13 58.2954C1163.51 58.2954 1165.95 59.1834 1167.43 60.9594C1168.95 62.7114 1169.7 64.8954 1169.7 67.5114V70.1034H1158.04V70.3194C1158.04 71.2074 1158.3 71.8674 1158.83 72.2994C1159.36 72.7074 1160.23 72.9114 1161.46 72.9114C1162.92 72.9114 1164.31 72.8034 1165.63 72.5874C1166.95 72.3714 1168.11 72.0954 1169.09 71.7594V77.5194C1168.25 77.9754 1167.01 78.3954 1165.38 78.7794C1163.77 79.1394 1162.02 79.3194 1160.13 79.3194ZM1162.21 66.1434V65.7114C1162.21 64.8954 1162.03 64.3074 1161.67 63.9474C1161.34 63.5874 1160.82 63.4074 1160.13 63.4074C1159.43 63.4074 1158.9 63.5994 1158.54 63.9834C1158.21 64.3434 1158.04 64.9194 1158.04 65.7114V66.1434H1162.21ZM1186.15 58.2954C1186.63 58.2954 1187.08 58.3434 1187.51 58.4394C1187.95 58.5354 1188.31 58.6554 1188.59 58.7994V65.6754C1187.61 65.2674 1186.55 65.0634 1185.43 65.0634C1183.91 65.0634 1182.75 65.4594 1181.93 66.2514C1181.12 67.0434 1180.71 68.2194 1180.71 69.7794V72.9114H1183.95V78.8154H1170.85V72.9114H1172.43V64.7034H1170.85V58.7994H1180.71V61.4274C1181.38 60.4194 1182.15 59.6514 1183.01 59.1234C1183.88 58.5714 1184.92 58.2954 1186.15 58.2954ZM386.204 122.319C381.668 122.319 378.164 121.167 375.692 118.863C373.244 116.559 372.02 112.875 372.02 107.811C372.02 98.1394 376.724 93.3034 386.132 93.3034C388.412 93.3034 390.524 93.5794 392.468 94.1314C394.436 94.6834 395.9 95.2954 396.86 95.9674V104.967H388.22V102.375C388.22 101.463 388.016 100.791 387.608 100.359C387.2 99.9274 386.588 99.7114 385.772 99.7114C384.956 99.7114 384.344 99.9274 383.936 100.359C383.528 100.791 383.324 101.463 383.324 102.375V113.247C383.324 114.159 383.528 114.831 383.936 115.263C384.344 115.695 384.956 115.911 385.772 115.911C386.588 115.911 387.2 115.695 387.608 115.263C388.016 114.831 388.22 114.159 388.22 113.247V110.331H396.86V119.655C395.876 120.327 394.412 120.939 392.468 121.491C390.548 122.043 388.46 122.319 386.204 122.319ZM399.872 99.8194V93.8074H407.216V99.8194H399.872ZM398.144 121.815V115.911H399.728V107.703H398.144V101.799H408.008V115.911H409.592V121.815H398.144ZM434.493 115.911V121.815H423.117V115.911H424.629V110.007C424.629 109.215 424.461 108.639 424.125 108.279C423.789 107.895 423.285 107.703 422.613 107.703C421.173 107.703 420.453 108.471 420.453 110.007V115.911H421.965V121.815H410.589V115.911H412.173V107.703H410.589V101.799H420.453V104.607C422.181 102.399 424.341 101.295 426.933 101.295C428.925 101.295 430.413 101.919 431.397 103.167C432.405 104.415 432.909 106.131 432.909 108.315V115.911H434.493ZM442.748 122.319C440.3 122.319 438.452 121.407 437.204 119.583C435.98 117.759 435.368 115.167 435.368 111.807C435.368 108.447 435.98 105.855 437.204 104.031C438.452 102.207 440.3 101.295 442.748 101.295C443.972 101.295 445.052 101.595 445.988 102.195C446.948 102.795 447.728 103.479 448.328 104.247V99.7114H446.204V93.8074H456.608V115.911H458.192V121.815H448.328V119.367C447.728 120.135 446.948 120.819 445.988 121.419C445.052 122.019 443.972 122.319 442.748 122.319ZM446.24 115.911C446.936 115.911 447.452 115.731 447.788 115.371C448.148 114.987 448.328 114.399 448.328 113.607V110.007C448.328 109.215 448.148 108.639 447.788 108.279C447.452 107.895 446.936 107.703 446.24 107.703C445.544 107.703 445.016 107.895 444.656 108.279C444.32 108.639 444.152 109.215 444.152 110.007V113.607C444.152 114.399 444.32 114.987 444.656 115.371C445.016 115.731 445.544 115.911 446.24 115.911ZM481.023 101.799V107.703H479.655L474.939 120.195C473.763 123.339 472.419 125.691 470.907 127.251C469.395 128.835 467.403 129.627 464.931 129.627C463.923 129.627 462.903 129.519 461.871 129.303C460.839 129.111 459.903 128.835 459.063 128.475V121.959H464.031V122.319C464.031 122.919 464.343 123.219 464.967 123.219C465.519 123.219 465.939 122.955 466.227 122.427L460.539 107.703H459.171V101.799H469.863V107.703H468.639L470.511 113.319L472.239 107.703H471.015V101.799H481.023ZM482.745 102.087L484.293 98.4154H482.529V93.8074H487.569V98.4154L485.157 102.087H482.745ZM498.404 122.319C495.38 122.319 492.464 121.839 489.656 120.879V115.551H495.488V115.911C495.488 117.063 496.22 117.639 497.684 117.639C498.98 117.639 499.628 117.195 499.628 116.307C499.628 115.827 499.436 115.467 499.052 115.227C498.692 114.987 498.044 114.783 497.108 114.615L495.308 114.291C491.54 113.619 489.656 111.483 489.656 107.883C489.656 105.795 490.448 104.175 492.032 103.023C493.616 101.871 495.752 101.295 498.44 101.295C501.44 101.295 503.972 101.799 506.036 102.807V107.811H500.564V107.451C500.564 106.971 500.396 106.611 500.06 106.371C499.748 106.107 499.28 105.975 498.656 105.975C497.456 105.975 496.856 106.359 496.856 107.127C496.856 107.535 497.024 107.847 497.36 108.063C497.696 108.279 498.308 108.483 499.196 108.675L501.248 109.071C503.384 109.479 504.908 110.235 505.82 111.339C506.732 112.443 507.188 113.859 507.188 115.587C507.188 117.771 506.42 119.439 504.884 120.591C503.372 121.743 501.212 122.319 498.404 122.319ZM530.349 122.319C528.045 122.319 525.861 122.127 523.797 121.743C521.757 121.335 520.185 120.879 519.081 120.375V113.247H527.001C527.001 113.991 527.169 114.531 527.505 114.867C527.841 115.203 528.453 115.371 529.341 115.371C530.085 115.371 530.613 115.263 530.925 115.047C531.261 114.807 531.429 114.459 531.429 114.003C531.429 113.619 531.273 113.295 530.961 113.031C530.649 112.743 530.109 112.455 529.341 112.167L526.245 111.087C523.581 110.079 521.661 108.891 520.485 107.523C519.333 106.155 518.757 104.307 518.757 101.979C518.757 99.1474 519.681 96.9994 521.529 95.5354C523.401 94.0474 526.509 93.3034 530.853 93.3034C532.941 93.3034 534.897 93.5194 536.721 93.9514C538.569 94.3594 540.057 94.9114 541.185 95.6074V102.051H533.985C533.985 100.851 533.241 100.251 531.753 100.251C531.033 100.251 530.517 100.347 530.205 100.539C529.917 100.707 529.773 101.019 529.773 101.475C529.773 101.883 529.941 102.207 530.277 102.447C530.637 102.687 531.213 102.939 532.005 103.203L535.137 104.283C537.681 105.147 539.529 106.275 540.681 107.667C541.857 109.035 542.445 110.835 542.445 113.067C542.445 116.115 541.413 118.419 539.349 119.979C537.309 121.539 534.309 122.319 530.349 122.319ZM554.103 122.319C550.695 122.319 548.031 121.431 546.111 119.655C544.191 117.855 543.231 115.239 543.231 111.807C543.231 108.375 544.191 105.771 546.111 103.995C548.031 102.195 550.695 101.295 554.103 101.295C557.487 101.295 559.923 102.183 561.411 103.959C562.923 105.711 563.679 107.895 563.679 110.511V113.103H552.015V113.319C552.015 114.207 552.279 114.867 552.807 115.299C553.335 115.707 554.211 115.911 555.435 115.911C556.899 115.911 558.291 115.803 559.611 115.587C560.931 115.371 562.083 115.095 563.067 114.759V120.519C562.227 120.975 560.991 121.395 559.359 121.779C557.751 122.139 555.999 122.319 554.103 122.319ZM556.191 109.143V108.711C556.191 107.895 556.011 107.307 555.651 106.947C555.315 106.587 554.799 106.407 554.103 106.407C553.407 106.407 552.879 106.599 552.519 106.983C552.183 107.343 552.015 107.919 552.015 108.711V109.143H556.191ZM588.654 115.911V121.815H577.278V115.911H578.79V110.007C578.79 109.215 578.622 108.639 578.286 108.279C577.95 107.895 577.446 107.703 576.774 107.703C575.334 107.703 574.614 108.471 574.614 110.007V115.911H576.126V121.815H564.75V115.911H566.334V107.703H564.75V101.799H574.614V104.607C576.342 102.399 578.502 101.295 581.094 101.295C583.086 101.295 584.574 101.919 585.558 103.167C586.566 104.415 587.07 106.131 587.07 108.315V115.911H588.654ZM598.564 122.319C595.54 122.319 592.624 121.839 589.816 120.879V115.551H595.648V115.911C595.648 117.063 596.38 117.639 597.844 117.639C599.14 117.639 599.788 117.195 599.788 116.307C599.788 115.827 599.596 115.467 599.212 115.227C598.852 114.987 598.204 114.783 597.268 114.615L595.468 114.291C591.7 113.619 589.816 111.483 589.816 107.883C589.816 105.795 590.608 104.175 592.192 103.023C593.776 101.871 595.912 101.295 598.6 101.295C601.6 101.295 604.132 101.799 606.196 102.807V107.811H600.724V107.451C600.724 106.971 600.556 106.611 600.22 106.371C599.908 106.107 599.44 105.975 598.816 105.975C597.616 105.975 597.016 106.359 597.016 107.127C597.016 107.535 597.184 107.847 597.52 108.063C597.856 108.279 598.468 108.483 599.356 108.675L601.408 109.071C603.544 109.479 605.068 110.235 605.98 111.339C606.892 112.443 607.348 113.859 607.348 115.587C607.348 117.771 606.58 119.439 605.044 120.591C603.532 121.743 601.372 122.319 598.564 122.319ZM619.212 122.319C615.804 122.319 613.14 121.431 611.22 119.655C609.3 117.855 608.34 115.239 608.34 111.807C608.34 108.375 609.3 105.771 611.22 103.995C613.14 102.195 615.804 101.295 619.212 101.295C622.596 101.295 625.032 102.183 626.52 103.959C628.032 105.711 628.788 107.895 628.788 110.511V113.103H617.124V113.319C617.124 114.207 617.388 114.867 617.916 115.299C618.444 115.707 619.32 115.911 620.544 115.911C622.008 115.911 623.4 115.803 624.72 115.587C626.04 115.371 627.192 115.095 628.176 114.759V120.519C627.336 120.975 626.1 121.395 624.468 121.779C622.86 122.139 621.108 122.319 619.212 122.319ZM621.3 109.143V108.711C621.3 107.895 621.12 107.307 620.76 106.947C620.424 106.587 619.908 106.407 619.212 106.407C618.516 106.407 617.988 106.599 617.628 106.983C617.292 107.343 617.124 107.919 617.124 108.711V109.143H621.3ZM651.38 122.319C647.972 122.319 645.308 121.431 643.388 119.655C641.468 117.855 640.508 115.239 640.508 111.807C640.508 108.375 641.468 105.771 643.388 103.995C645.308 102.195 647.972 101.295 651.38 101.295C654.836 101.295 657.512 102.207 659.408 104.031C661.304 105.831 662.252 108.423 662.252 111.807C662.252 115.239 661.292 117.855 659.372 119.655C657.452 121.431 654.788 122.319 651.38 122.319ZM651.38 115.911C652.076 115.911 652.592 115.731 652.928 115.371C653.288 114.987 653.468 114.399 653.468 113.607V110.007C653.468 109.215 653.288 108.639 652.928 108.279C652.592 107.895 652.076 107.703 651.38 107.703C650.684 107.703 650.156 107.895 649.796 108.279C649.46 108.639 649.292 109.215 649.292 110.007V113.607C649.292 114.399 649.46 114.987 649.796 115.371C650.156 115.731 650.684 115.911 651.38 115.911ZM663.398 115.911H664.982V107.703H663.398V101.799H665.054C665.054 98.8714 665.762 96.7234 667.178 95.3554C668.618 93.9874 670.706 93.3034 673.442 93.3034C674.762 93.3034 675.938 93.3994 676.97 93.5914C678.026 93.7834 678.794 93.9994 679.274 94.2394V99.8914C678.002 99.7714 676.826 99.7114 675.746 99.7114C674.81 99.7114 674.162 99.8674 673.802 100.179C673.442 100.491 673.262 101.031 673.262 101.799H676.07V107.703H673.262V115.911H676.07V121.815H663.398V115.911ZM714.503 115.911H715.943V121.815H701.831V115.911H703.991L703.415 113.031H698.519L697.943 115.911H700.103V121.815H687.791V115.911H689.231L695.315 93.8074H708.419L714.503 115.911ZM699.311 109.215H702.623L701.147 102.051H700.787L699.311 109.215ZM727.775 122.319C724.343 122.319 721.667 121.431 719.747 119.655C717.827 117.855 716.867 115.239 716.867 111.807C716.867 108.375 717.827 105.771 719.747 103.995C721.667 102.195 724.331 101.295 727.739 101.295C729.395 101.295 730.979 101.523 732.491 101.979C734.003 102.435 735.179 102.951 736.019 103.527V110.655H729.827V110.007C729.827 109.215 729.659 108.639 729.323 108.279C728.987 107.895 728.459 107.703 727.739 107.703C726.347 107.703 725.651 108.471 725.651 110.007V113.103C725.651 114.975 726.719 115.911 728.855 115.911C730.847 115.911 733.163 115.695 735.803 115.263V120.915C734.987 121.275 733.835 121.599 732.347 121.887C730.883 122.175 729.359 122.319 727.775 122.319ZM761.13 115.911V121.815H749.754V115.911H751.266V110.007C751.266 109.215 751.098 108.639 750.762 108.279C750.426 107.895 749.922 107.703 749.25 107.703C747.81 107.703 747.09 108.471 747.09 110.007V115.911H748.602V121.815H737.226V115.911H738.81V99.7114H737.226V93.8074H747.09V104.607C747.978 103.503 748.938 102.675 749.97 102.123C751.002 101.571 752.202 101.295 753.57 101.295C755.562 101.295 757.05 101.919 758.034 103.167C759.042 104.415 759.546 106.131 759.546 108.315V115.911H761.13ZM764.021 99.8194V93.8074H771.365V99.8194H764.021ZM762.293 121.815V115.911H763.877V107.703H762.293V101.799H772.157V115.911H773.741V121.815H762.293ZM785.466 122.319C782.058 122.319 779.394 121.431 777.474 119.655C775.554 117.855 774.594 115.239 774.594 111.807C774.594 108.375 775.554 105.771 777.474 103.995C779.394 102.195 782.058 101.295 785.466 101.295C788.85 101.295 791.286 102.183 792.774 103.959C794.286 105.711 795.042 107.895 795.042 110.511V113.103H783.378V113.319C783.378 114.207 783.642 114.867 784.17 115.299C784.698 115.707 785.574 115.911 786.798 115.911C788.262 115.911 789.654 115.803 790.974 115.587C792.294 115.371 793.446 115.095 794.43 114.759V120.519C793.59 120.975 792.354 121.395 790.722 121.779C789.114 122.139 787.362 122.319 785.466 122.319ZM787.554 109.143V108.711C787.554 107.895 787.374 107.307 787.014 106.947C786.678 106.587 786.162 106.407 785.466 106.407C784.77 106.407 784.242 106.599 783.882 106.983C783.546 107.343 783.378 107.919 783.378 108.711V109.143H787.554ZM801.873 121.815L797.337 107.703H795.825V101.799H806.949V107.703H805.437L807.345 114.831H807.705L809.613 107.703H808.101V101.799H818.541V107.703H817.029L812.601 121.815H801.873ZM830.29 122.319C826.882 122.319 824.218 121.431 822.298 119.655C820.378 117.855 819.418 115.239 819.418 111.807C819.418 108.375 820.378 105.771 822.298 103.995C824.218 102.195 826.882 101.295 830.29 101.295C833.674 101.295 836.11 102.183 837.598 103.959C839.11 105.711 839.866 107.895 839.866 110.511V113.103H828.202V113.319C828.202 114.207 828.466 114.867 828.994 115.299C829.522 115.707 830.398 115.911 831.622 115.911C833.086 115.911 834.478 115.803 835.798 115.587C837.118 115.371 838.27 115.095 839.254 114.759V120.519C838.414 120.975 837.178 121.395 835.546 121.779C833.938 122.139 832.186 122.319 830.29 122.319ZM832.378 109.143V108.711C832.378 107.895 832.198 107.307 831.838 106.947C831.502 106.587 830.986 106.407 830.29 106.407C829.594 106.407 829.066 106.599 828.706 106.983C828.37 107.343 828.202 107.919 828.202 108.711V109.143H832.378ZM877.297 115.911V121.815H865.921V115.911H867.433V110.007C867.433 109.215 867.265 108.639 866.929 108.279C866.593 107.895 866.089 107.703 865.417 107.703C863.977 107.703 863.257 108.471 863.257 110.007V115.911H864.769V121.815H853.465V115.911H854.977V110.007C854.977 109.215 854.809 108.639 854.473 108.279C854.137 107.895 853.633 107.703 852.961 107.703C851.521 107.703 850.801 108.471 850.801 110.007V115.911H852.313V121.815H840.937V115.911H842.521V107.703H840.937V101.799H850.801V104.607C852.529 102.399 854.689 101.295 857.281 101.295C858.745 101.295 859.933 101.643 860.845 102.339C861.781 103.011 862.441 103.971 862.825 105.219C863.689 103.971 864.673 103.011 865.777 102.339C866.905 101.667 868.225 101.331 869.737 101.331C871.729 101.331 873.217 101.955 874.201 103.203C875.209 104.451 875.713 106.167 875.713 108.351V115.911H877.297ZM889.177 122.319C885.769 122.319 883.105 121.431 881.185 119.655C879.265 117.855 878.305 115.239 878.305 111.807C878.305 108.375 879.265 105.771 881.185 103.995C883.105 102.195 885.769 101.295 889.177 101.295C892.561 101.295 894.997 102.183 896.485 103.959C897.997 105.711 898.753 107.895 898.753 110.511V113.103H887.089V113.319C887.089 114.207 887.353 114.867 887.881 115.299C888.409 115.707 889.285 115.911 890.509 115.911C891.973 115.911 893.365 115.803 894.685 115.587C896.005 115.371 897.157 115.095 898.141 114.759V120.519C897.301 120.975 896.065 121.395 894.433 121.779C892.825 122.139 891.073 122.319 889.177 122.319ZM891.265 109.143V108.711C891.265 107.895 891.085 107.307 890.725 106.947C890.389 106.587 889.873 106.407 889.177 106.407C888.481 106.407 887.953 106.599 887.593 106.983C887.257 107.343 887.089 107.919 887.089 108.711V109.143H891.265ZM923.728 115.911V121.815H912.352V115.911H913.864V110.007C913.864 109.215 913.696 108.639 913.36 108.279C913.024 107.895 912.52 107.703 911.848 107.703C910.408 107.703 909.688 108.471 909.688 110.007V115.911H911.2V121.815H899.824V115.911H901.408V107.703H899.824V101.799H909.688V104.607C911.416 102.399 913.576 101.295 916.168 101.295C918.16 101.295 919.648 101.919 920.632 103.167C921.64 104.415 922.144 106.131 922.144 108.315V115.911H923.728ZM933.782 122.319C931.238 122.319 929.318 121.707 928.022 120.483C926.75 119.235 926.114 117.147 926.114 114.219V107.703H924.53V101.799C925.442 101.799 926.126 101.571 926.582 101.115C927.038 100.635 927.266 99.9874 927.266 99.1714V97.5514H934.898V101.799H939.758V107.703H934.898V113.607C934.898 114.399 935.066 114.987 935.402 115.371C935.762 115.731 936.29 115.911 936.986 115.911C937.898 115.911 938.894 115.803 939.974 115.587V121.239C939.302 121.503 938.39 121.743 937.238 121.959C936.11 122.199 934.958 122.319 933.782 122.319Z" fill="#FF5722"/>
<path d="M518.397 59.0874V54.4794L520.809 50.8074H523.221L521.673 54.4794H523.437V59.0874H518.397ZM524.733 59.0874V54.4794L527.145 50.8074H529.557L528.009 54.4794H529.773V59.0874H524.733ZM542.724 79.3194C540.42 79.3194 538.236 79.1274 536.172 78.7434C534.132 78.3354 532.56 77.8794 531.456 77.3754V70.2474H539.376C539.376 70.9914 539.544 71.5314 539.88 71.8674C540.216 72.2034 540.828 72.3714 541.716 72.3714C542.46 72.3714 542.988 72.2634 543.3 72.0474C543.636 71.8074 543.804 71.4594 543.804 71.0034C543.804 70.6194 543.648 70.2954 543.336 70.0314C543.024 69.7434 542.484 69.4554 541.716 69.1674L538.62 68.0874C535.956 67.0794 534.036 65.8914 532.86 64.5234C531.708 63.1554 531.132 61.3074 531.132 58.9794C531.132 56.1474 532.056 53.9994 533.904 52.5354C535.776 51.0474 538.884 50.3034 543.228 50.3034C545.316 50.3034 547.272 50.5194 549.096 50.9514C550.944 51.3594 552.432 51.9114 553.56 52.6074V59.0514H546.36C546.36 57.8514 545.616 57.2514 544.128 57.2514C543.408 57.2514 542.892 57.3474 542.58 57.5394C542.292 57.7074 542.148 58.0194 542.148 58.4754C542.148 58.8834 542.316 59.2074 542.652 59.4474C543.012 59.6874 543.588 59.9394 544.38 60.2034L547.512 61.2834C550.056 62.1474 551.904 63.2754 553.056 64.6674C554.232 66.0354 554.82 67.8354 554.82 70.0674C554.82 73.1154 553.788 75.4194 551.724 76.9794C549.684 78.5394 546.684 79.3194 542.724 79.3194ZM566.478 79.3194C563.07 79.3194 560.406 78.4314 558.486 76.6554C556.566 74.8554 555.606 72.2394 555.606 68.8074C555.606 65.3754 556.566 62.7714 558.486 60.9954C560.406 59.1954 563.07 58.2954 566.478 58.2954C569.862 58.2954 572.298 59.1834 573.786 60.9594C575.298 62.7114 576.054 64.8954 576.054 67.5114V70.1034H564.39V70.3194C564.39 71.2074 564.654 71.8674 565.182 72.2994C565.71 72.7074 566.586 72.9114 567.81 72.9114C569.274 72.9114 570.666 72.8034 571.986 72.5874C573.306 72.3714 574.458 72.0954 575.442 71.7594V77.5194C574.602 77.9754 573.366 78.3954 571.734 78.7794C570.126 79.1394 568.374 79.3194 566.478 79.3194ZM568.566 66.1434V65.7114C568.566 64.8954 568.386 64.3074 568.026 63.9474C567.69 63.5874 567.174 63.4074 566.478 63.4074C565.782 63.4074 565.254 63.5994 564.894 63.9834C564.558 64.3434 564.39 64.9194 564.39 65.7114V66.1434H568.566ZM577.125 78.8514V72.9114H578.709V56.7114H577.125V50.8074H586.989V72.9114H588.573V78.8514H577.125ZM589.711 72.9114H591.295V64.7034H589.711V58.7994H591.367C591.367 55.8714 592.075 53.7234 593.491 52.3554C594.931 50.9874 597.019 50.3034 599.755 50.3034C601.075 50.3034 602.251 50.3994 603.283 50.5914C604.339 50.7834 605.107 50.9994 605.587 51.2394V56.8914C604.315 56.7714 603.139 56.7114 602.059 56.7114C601.123 56.7114 600.475 56.8674 600.115 57.1794C599.755 57.4914 599.575 58.0314 599.575 58.7994H602.383V64.7034H599.575V72.9114H602.383V78.8154H589.711V72.9114ZM604.103 71.6514V65.7474H615.659V71.6514H604.103ZM631.559 79.3194C627.023 79.3194 623.519 78.1674 621.047 75.8634C618.599 73.5594 617.375 69.8754 617.375 64.8114C617.375 55.1394 622.079 50.3034 631.487 50.3034C633.767 50.3034 635.879 50.5794 637.823 51.1314C639.791 51.6834 641.255 52.2954 642.215 52.9674V61.9674H633.575V59.3754C633.575 58.4634 633.371 57.7914 632.963 57.3594C632.555 56.9274 631.943 56.7114 631.127 56.7114C630.311 56.7114 629.699 56.9274 629.291 57.3594C628.883 57.7914 628.679 58.4634 628.679 59.3754V70.2474C628.679 71.1594 628.883 71.8314 629.291 72.2634C629.699 72.6954 630.311 72.9114 631.127 72.9114C631.943 72.9114 632.555 72.6954 632.963 72.2634C633.371 71.8314 633.575 71.1594 633.575 70.2474V67.3314H642.215V76.6554C641.231 77.3274 639.767 77.9394 637.823 78.4914C635.903 79.0434 633.815 79.3194 631.559 79.3194ZM658.872 58.2954C659.352 58.2954 659.808 58.3434 660.24 58.4394C660.672 58.5354 661.032 58.6554 661.32 58.7994V65.6754C660.336 65.2674 659.28 65.0634 658.152 65.0634C656.64 65.0634 655.476 65.4594 654.66 66.2514C653.844 67.0434 653.436 68.2194 653.436 69.7794V72.9114H656.676V78.8154H643.572V72.9114H645.156V64.7034H643.572V58.7994H653.436V61.4274C654.108 60.4194 654.876 59.6514 655.74 59.1234C656.604 58.5714 657.648 58.2954 658.872 58.2954ZM673.212 79.3194C669.804 79.3194 667.14 78.4314 665.22 76.6554C663.3 74.8554 662.34 72.2394 662.34 68.8074C662.34 65.3754 663.3 62.7714 665.22 60.9954C667.14 59.1954 669.804 58.2954 673.212 58.2954C676.596 58.2954 679.032 59.1834 680.52 60.9594C682.032 62.7114 682.788 64.8954 682.788 67.5114V70.1034H671.124V70.3194C671.124 71.2074 671.388 71.8674 671.916 72.2994C672.444 72.7074 673.32 72.9114 674.544 72.9114C676.008 72.9114 677.4 72.8034 678.72 72.5874C680.04 72.3714 681.192 72.0954 682.176 71.7594V77.5194C681.336 77.9754 680.1 78.3954 678.468 78.7794C676.86 79.1394 675.108 79.3194 673.212 79.3194ZM675.3 66.1434V65.7114C675.3 64.8954 675.12 64.3074 674.76 63.9474C674.424 63.5874 673.908 63.4074 673.212 63.4074C672.516 63.4074 671.988 63.5994 671.628 63.9834C671.292 64.3434 671.124 64.9194 671.124 65.7114V66.1434H675.3ZM704.847 72.9114V78.8154H695.343V76.3674C694.815 77.1354 694.071 77.8194 693.111 78.4194C692.175 79.0194 691.023 79.3194 689.655 79.3194C687.855 79.3194 686.439 78.8394 685.407 77.8794C684.375 76.9194 683.859 75.5634 683.859 73.8114C683.859 69.2754 687.711 66.9474 695.415 66.8274C695.343 66.0114 695.031 65.4594 694.479 65.1714C693.927 64.8594 692.991 64.7034 691.671 64.7034C690.591 64.7034 689.427 64.8234 688.179 65.0634C686.955 65.2794 685.827 65.5794 684.795 65.9634V59.3394C686.067 59.0274 687.447 58.7754 688.935 58.5834C690.423 58.3914 691.875 58.2954 693.291 58.2954C696.867 58.2954 699.423 58.9434 700.959 60.2394C702.495 61.5354 703.263 63.5394 703.263 66.2514V72.9114H704.847ZM695.343 70.3914C694.263 70.3914 693.423 70.5354 692.823 70.8234C692.247 71.1114 691.959 71.5914 691.959 72.2634C691.959 72.6714 692.079 73.0074 692.319 73.2714C692.583 73.5114 692.943 73.6314 693.399 73.6314C694.023 73.6314 694.503 73.3674 694.839 72.8394C695.175 72.3114 695.343 71.5674 695.343 70.6074V70.3914ZM714.899 79.3194C712.355 79.3194 710.435 78.7074 709.139 77.4834C707.867 76.2354 707.231 74.1474 707.231 71.2194V64.7034H705.647V58.7994C706.559 58.7994 707.243 58.5714 707.699 58.1154C708.155 57.6354 708.383 56.9874 708.383 56.1714V54.5514H716.015V58.7994H720.875V64.7034H716.015V70.6074C716.015 71.3994 716.183 71.9874 716.519 72.3714C716.879 72.7314 717.407 72.9114 718.103 72.9114C719.015 72.9114 720.011 72.8034 721.091 72.5874V78.2394C720.419 78.5034 719.507 78.7434 718.355 78.9594C717.227 79.1994 716.075 79.3194 714.899 79.3194ZM732.978 79.3194C729.57 79.3194 726.906 78.4314 724.986 76.6554C723.066 74.8554 722.106 72.2394 722.106 68.8074C722.106 65.3754 723.066 62.7714 724.986 60.9954C726.906 59.1954 729.57 58.2954 732.978 58.2954C736.362 58.2954 738.798 59.1834 740.286 60.9594C741.798 62.7114 742.554 64.8954 742.554 67.5114V70.1034H730.89V70.3194C730.89 71.2074 731.154 71.8674 731.682 72.2994C732.21 72.7074 733.086 72.9114 734.31 72.9114C735.774 72.9114 737.166 72.8034 738.486 72.5874C739.806 72.3714 740.958 72.0954 741.942 71.7594V77.5194C741.102 77.9754 739.866 78.3954 738.234 78.7794C736.626 79.1394 734.874 79.3194 732.978 79.3194ZM735.066 66.1434V65.7114C735.066 64.8954 734.886 64.3074 734.526 63.9474C734.19 63.5874 733.674 63.4074 732.978 63.4074C732.282 63.4074 731.754 63.5994 731.394 63.9834C731.058 64.3434 730.89 64.9194 730.89 65.7114V66.1434H735.066ZM750.717 79.3194C748.269 79.3194 746.421 78.4074 745.173 76.5834C743.949 74.7594 743.337 72.1674 743.337 68.8074C743.337 65.4474 743.949 62.8554 745.173 61.0314C746.421 59.2074 748.269 58.2954 750.717 58.2954C751.941 58.2954 753.021 58.5954 753.957 59.1954C754.917 59.7954 755.697 60.4794 756.297 61.2474V56.7114H754.173V50.8074H764.577V72.9114H766.161V78.8154H756.297V76.3674C755.697 77.1354 754.917 77.8194 753.957 78.4194C753.021 79.0194 751.941 79.3194 750.717 79.3194ZM754.209 72.9114C754.905 72.9114 755.421 72.7314 755.757 72.3714C756.117 71.9874 756.297 71.3994 756.297 70.6074V67.0074C756.297 66.2154 756.117 65.6394 755.757 65.2794C755.421 64.8954 754.905 64.7034 754.209 64.7034C753.513 64.7034 752.985 64.8954 752.625 65.2794C752.289 65.6394 752.121 66.2154 752.121 67.0074V70.6074C752.121 71.3994 752.289 71.9874 752.625 72.3714C752.985 72.7314 753.513 72.9114 754.209 72.9114ZM804.609 72.9114H806.049V78.8154H791.937V72.9114H794.097L793.521 70.0314H788.625L788.049 72.9114H790.209V78.8154H777.897V72.9114H779.337L785.421 50.8074H798.525L804.609 72.9114ZM789.417 66.2154H792.729L791.253 59.0514H790.893L789.417 66.2154ZM817.881 79.3194C814.449 79.3194 811.773 78.4314 809.853 76.6554C807.933 74.8554 806.973 72.2394 806.973 68.8074C806.973 65.3754 807.933 62.7714 809.853 60.9954C811.773 59.1954 814.437 58.2954 817.845 58.2954C819.501 58.2954 821.085 58.5234 822.597 58.9794C824.109 59.4354 825.285 59.9514 826.125 60.5274V67.6554H819.933V67.0074C819.933 66.2154 819.765 65.6394 819.429 65.2794C819.093 64.8954 818.565 64.7034 817.845 64.7034C816.453 64.7034 815.757 65.4714 815.757 67.0074V70.1034C815.757 71.9754 816.825 72.9114 818.961 72.9114C820.953 72.9114 823.269 72.6954 825.909 72.2634V77.9154C825.093 78.2754 823.941 78.5994 822.453 78.8874C820.989 79.1754 819.465 79.3194 817.881 79.3194ZM836.224 79.3194C833.68 79.3194 831.76 78.7074 830.464 77.4834C829.192 76.2354 828.556 74.1474 828.556 71.2194V64.7034H826.972V58.7994C827.884 58.7994 828.568 58.5714 829.024 58.1154C829.48 57.6354 829.708 56.9874 829.708 56.1714V54.5514H837.34V58.7994H842.2V64.7034H837.34V70.6074C837.34 71.3994 837.508 71.9874 837.844 72.3714C838.204 72.7314 838.732 72.9114 839.428 72.9114C840.34 72.9114 841.336 72.8034 842.416 72.5874V78.2394C841.744 78.5034 840.832 78.7434 839.68 78.9594C838.552 79.1994 837.4 79.3194 836.224 79.3194ZM845.302 56.8194V50.8074H852.646V56.8194H845.302ZM843.574 78.8154V72.9114H845.158V64.7034H843.574V58.7994H853.438V72.9114H855.022V78.8154H843.574ZM861.779 78.8154L857.243 64.7034H855.731V58.7994H866.855V64.7034H865.343L867.251 71.8314H867.611L869.519 64.7034H868.007V58.7994H878.447V64.7034H876.935L872.507 78.8154H861.779ZM881.196 56.8194V50.8074H888.54V56.8194H881.196ZM879.468 78.8154V72.9114H881.052V64.7034H879.468V58.7994H889.332V72.9114H890.916V78.8154H879.468ZM900.806 79.3194C898.262 79.3194 896.342 78.7074 895.046 77.4834C893.774 76.2354 893.138 74.1474 893.138 71.2194V64.7034H891.554V58.7994C892.466 58.7994 893.15 58.5714 893.606 58.1154C894.062 57.6354 894.29 56.9874 894.29 56.1714V54.5514H901.922V58.7994H906.782V64.7034H901.922V70.6074C901.922 71.3994 902.09 71.9874 902.426 72.3714C902.786 72.7314 903.314 72.9114 904.01 72.9114C904.922 72.9114 905.918 72.8034 906.998 72.5874V78.2394C906.326 78.5034 905.414 78.7434 904.262 78.9594C903.134 79.1994 901.982 79.3194 900.806 79.3194ZM929.828 58.7994V64.7034H928.46L923.744 77.1954C922.568 80.3394 921.224 82.6914 919.712 84.2514C918.2 85.8354 916.208 86.6274 913.736 86.6274C912.728 86.6274 911.708 86.5194 910.676 86.3034C909.644 86.1114 908.708 85.8354 907.868 85.4754V78.9594H912.836V79.3194C912.836 79.9194 913.148 80.2194 913.772 80.2194C914.324 80.2194 914.744 79.9554 915.032 79.4274L909.344 64.7034H907.976V58.7994H918.668V64.7034H917.444L919.316 70.3194L921.044 64.7034H919.82V58.7994H929.828ZM931.55 59.0874L933.098 55.4154H931.334V50.8074H936.374V55.4154L933.962 59.0874H931.55ZM937.886 59.0874L939.434 55.4154H937.67V50.8074H942.71V55.4154L940.298 59.0874H937.886Z" fill="#013399"/>
</g>
<defs>
<clipPath id="clip0_69_5359">
<rect width="1311" height="130" fill="white" transform="translate(0.5 0.81543)"/>
</clipPath>
</defs>
</svg>
